# Exported from Wings 3D 1.4.1
mtllib RocketIcon.mtl
o cube1
#24 vertices, 20 faces
v -0.30000000 0.0000000e+0 1.00000000
v -0.30000000 0.20000000 1.00000000
v 0.30000000 0.20000000 1.00000000
v 0.30000000 0.0000000e+0 1.00000000
v -0.30000000 0.0000000e+0 -0.80000000
v -0.10000000 0.0000000e+0 -1.00000000
v -0.30000000 0.20000000 -0.80000000
v -0.10000000 0.20000000 -1.00000000
v 0.10000000 0.20000000 -1.00000000
v 0.30000000 0.20000000 -0.80000000
v 0.10000000 0.0000000e+0 -1.00000000
v 0.30000000 0.0000000e+0 -0.80000000
v 0.30000000 0.0000000e+0 0.49060000
v 0.30000000 0.20000000 0.49060000
v -0.30000000 0.20000000 0.49060000
v -0.30000000 0.0000000e+0 0.49060000
v -0.51155556 0.20000000 0.57415556
v -0.51155556 0.0000000e+0 0.57415556
v -0.51155556 0.0000000e+0 1.00000000
v -0.51155556 0.20000000 1.00000000
v 0.51155556 0.0000000e+0 0.57415556
v 0.51155556 0.20000000 0.57415556
v 0.51155556 0.20000000 1.00000000
v 0.51155556 0.0000000e+0 1.00000000
vn 0.0000000e+0 0.0000000e+0 1.00000000
vn 0.0000000e+0 -1.00000000 0.0000000e+0
vn 0.0000000e+0 -1.00000000 0.0000000e+0
vn 0.0000000e+0 0.0000000e+0 1.00000000
vn 0.0000000e+0 0.0000000e+0 1.00000000
vn 0.0000000e+0 1.00000000 0.0000000e+0
vn 0.0000000e+0 0.0000000e+0 1.00000000
vn 0.0000000e+0 1.00000000 0.0000000e+0
vn 0.0000000e+0 0.0000000e+0 1.00000000
vn 0.0000000e+0 1.00000000 0.0000000e+0
vn 0.0000000e+0 1.00000000 0.0000000e+0
vn 0.0000000e+0 0.0000000e+0 1.00000000
vn 0.0000000e+0 0.0000000e+0 1.00000000
vn 0.0000000e+0 -1.00000000 0.0000000e+0
vn 0.0000000e+0 0.0000000e+0 1.00000000
vn 0.0000000e+0 -1.00000000 0.0000000e+0
vn 0.0000000e+0 -1.00000000 0.0000000e+0
vn -1.00000000 0.0000000e+0 0.0000000e+0
vn -0.70710678 0.0000000e+0 -0.70710678
vn 0.0000000e+0 -1.00000000 0.0000000e+0
vn 0.0000000e+0 0.0000000e+0 -1.00000000
vn -0.70710678 0.0000000e+0 -0.70710678
vn 0.0000000e+0 1.00000000 2.4365234e-17
vn -1.00000000 0.0000000e+0 0.0000000e+0
vn -0.70710678 0.0000000e+0 -0.70710678
vn 0.0000000e+0 1.00000000 2.4365234e-17
vn 0.0000000e+0 0.0000000e+0 -1.00000000
vn -0.70710678 0.0000000e+0 -0.70710678
vn 0.0000000e+0 1.00000000 2.4365234e-17
vn 0.0000000e+0 0.0000000e+0 -1.00000000
vn 0.70710678 0.0000000e+0 -0.70710678
vn 1.00000000 0.0000000e+0 0.0000000e+0
vn 0.0000000e+0 1.00000000 2.4365234e-17
vn 0.70710678 0.0000000e+0 -0.70710678
vn 0.0000000e+0 -1.00000000 0.0000000e+0
vn 0.0000000e+0 0.0000000e+0 -1.00000000
vn 0.70710678 0.0000000e+0 -0.70710678
vn 1.00000000 0.0000000e+0 0.0000000e+0
vn 0.0000000e+0 -1.00000000 0.0000000e+0
vn 0.70710678 0.0000000e+0 -0.70710678
vn 1.00000000 0.0000000e+0 0.0000000e+0
vn 0.0000000e+0 -1.00000000 0.0000000e+0
vn 0.0000000e+0 -1.00000000 0.0000000e+0
vn 0.36734448 0.0000000e+0 -0.93008496
vn 0.0000000e+0 -1.00000000 0.0000000e+0
vn 1.00000000 0.0000000e+0 0.0000000e+0
vn 0.0000000e+0 1.00000000 2.4365234e-17
vn 0.0000000e+0 1.00000000 0.0000000e+0
vn 0.36734448 0.0000000e+0 -0.93008496
vn 0.0000000e+0 1.00000000 0.0000000e+0
vn 0.0000000e+0 1.00000000 2.4365234e-17
vn -1.00000000 0.0000000e+0 0.0000000e+0
vn 0.0000000e+0 1.00000000 0.0000000e+0
vn -0.36734448 0.0000000e+0 -0.93008496
vn 0.0000000e+0 1.00000000 0.0000000e+0
vn 0.0000000e+0 -1.00000000 0.0000000e+0
vn -1.00000000 0.0000000e+0 0.0000000e+0
vn 0.0000000e+0 -1.00000000 0.0000000e+0
vn -0.36734448 0.0000000e+0 -0.93008496
vn 0.0000000e+0 -1.00000000 0.0000000e+0
vn -1.00000000 0.0000000e+0 0.0000000e+0
vn -0.36734448 0.0000000e+0 -0.93008496
vn 0.0000000e+0 1.00000000 0.0000000e+0
vn -1.00000000 0.0000000e+0 0.0000000e+0
vn -0.36734448 0.0000000e+0 -0.93008496
vn 0.0000000e+0 -1.00000000 0.0000000e+0
vn -1.00000000 0.0000000e+0 0.0000000e+0
vn 0.0000000e+0 -1.00000000 0.0000000e+0
vn 0.0000000e+0 0.0000000e+0 1.00000000
vn -1.00000000 0.0000000e+0 0.0000000e+0
vn 0.0000000e+0 0.0000000e+0 1.00000000
vn 0.0000000e+0 1.00000000 0.0000000e+0
vn 1.00000000 0.0000000e+0 0.0000000e+0
vn 0.36734448 0.0000000e+0 -0.93008496
vn 0.0000000e+0 -1.00000000 0.0000000e+0
vn 1.00000000 0.0000000e+0 0.0000000e+0
vn 0.36734448 0.0000000e+0 -0.93008496
vn 0.0000000e+0 1.00000000 0.0000000e+0
vn 1.00000000 0.0000000e+0 0.0000000e+0
vn 0.0000000e+0 1.00000000 0.0000000e+0
vn 0.0000000e+0 0.0000000e+0 1.00000000
vn 1.00000000 0.0000000e+0 0.0000000e+0
vn 0.0000000e+0 0.0000000e+0 1.00000000
vn 0.0000000e+0 -1.00000000 0.0000000e+0
g cube1_default
usemtl default
s 1
f 1//1 4//13 3//9 2//5
f 3//11 23//80 22//78 14//50
f 5//19 7//25 8//28 6//22
f 11//37 9//31 10//34 12//40
f 13//45 21//75 24//84 4//16
f 16//59 18//65 17//62 15//54
s 2
f 1//2 16//58 13//43 4//14
f 2//7 20//71 19//69 1//4
f 3//10 14//48 15//53 2//6
f 4//15 24//83 23//81 3//12
f 5//18 16//57 15//52 7//24
f 6//21 8//27 9//30 11//36
f 14//49 22//77 21//74 13//44
s 3
f 8//26 7//23 15//51 14//47 10//33 9//29
f 11//35 12//39 13//42 16//56 5//17 6//20
f 18//64 19//67 20//70 17//61
f 22//76 23//79 24//82 21//73
s 4
f 1//3 19//68 18//66 16//60
f 10//32 14//46 13//41 12//38
f 15//55 17//63 20//72 2//8
