# Exported from Wings 3D 1.4.1
mtllib periscope.mtl
o cylinder1
#64 vertices, 58 faces
v 0.35951762 1.82465154 0.0000000e+0
v 0.25421735 1.87600992 0.28284271
v 0.0000000e+0 2.00000000 0.40000000
v -0.25421735 2.12399008 0.28284271
v -0.35951762 2.17534846 4.8985872e-17
v -0.25421735 2.12399008 -0.28284271
v -1.1102230e-16 2.00000000 -0.40000000
v 0.25421735 1.87600992 -0.28284271
v 0.40000000 0.0000000e+0 0.0000000e+0
v 0.28284271 0.0000000e+0 0.28284271
v -8.8137548e-18 0.0000000e+0 0.40000000
v -0.28284271 0.0000000e+0 0.28284271
v -0.40000000 0.0000000e+0 4.8985872e-17
v -0.28284271 0.0000000e+0 -0.28284271
v -1.0678550e-16 0.0000000e+0 -0.40000000
v 0.28284271 0.0000000e+0 -0.28284271
v 0.63913296 2.16471425 0.28284271
v 0.67142589 2.05209544 -2.4532695e-16
v 0.63913296 2.16471425 -0.28284271
v 0.56117094 2.43660012 -0.40000000
v 0.48320893 2.70848598 -0.28284271
v 0.45091600 2.82110479 -1.9634107e-16
v 0.48320893 2.70848598 0.28284271
v 0.56117094 2.43660012 0.40000000
v 1.21811814 2.15375740 0.28284271
v 1.21811814 2.03660012 -2.4532695e-16
v 1.21811814 2.15375740 -0.28284271
v 1.21811814 2.43660012 -0.40000000
v 1.21811814 2.71944283 -0.28284271
v 1.21811814 2.83660012 -1.9634107e-16
v 1.21811814 2.71944283 0.28284271
v 1.21811814 2.43660012 0.40000000
v 1.48796262 2.15375740 0.28284271
v 1.48796262 2.03660012 -2.4532695e-16
v 1.48796262 2.15375740 -0.28284271
v 1.48796262 2.43660012 -0.40000000
v 1.48796262 2.71944283 -0.28284271
v 1.48796262 2.83660012 -1.9634107e-16
v 1.48796262 2.71944283 0.28284271
v 1.48796262 2.43660012 0.40000000
v 1.21811814 2.04202805 0.39457207
v 1.21811814 1.87859094 -2.3583299e-16
v 1.21811814 2.04202805 -0.39457207
v 1.21811814 2.43660012 -0.55800917
v 1.21811814 2.83117218 -0.39457207
v 1.21811814 2.99460929 -2.0583503e-16
v 1.21811814 2.83117218 0.39457207
v 1.21811814 2.43660012 0.55800917
v 1.48796262 2.04202805 0.39457207
v 1.48796262 1.87859094 -2.3583299e-16
v 1.48796262 2.04202805 -0.39457207
v 1.48796262 2.43660012 -0.55800917
v 1.48796262 2.83117218 -0.39457207
v 1.48796262 2.99460929 -2.0583503e-16
v 1.48796262 2.83117218 0.39457207
v 1.48796262 2.43660012 0.55800917
v 1.33755750 2.15375740 0.28284271
v 1.33755750 2.03660012 -2.4532695e-16
v 1.33755750 2.15375740 -0.28284271
v 1.33755750 2.43660012 -0.40000000
v 1.33755750 2.71944283 -0.28284271
v 1.33755750 2.83660012 -1.9634107e-16
v 1.33755750 2.71944283 0.28284271
v 1.33755750 2.43660012 0.40000000
vn 0.93102196 1.7386306e-2 -0.36454880
vn 0.93102196 1.7386306e-2 0.36454880
vn 0.55681928 -0.75173167 0.35334372
vn 0.55681928 -0.75173167 -0.35334372
vn 0.40046046 2.9575072e-3 0.91630927
vn 0.93102196 1.7386306e-2 0.36454880
vn 0.55681928 -0.75173167 0.35334372
vn 0.25144690 -0.32798714 0.91060359
vn -0.39934945 2.7719573e-3 0.91679460
vn 0.40046046 2.9575072e-3 0.91630927
vn -0.25535424 0.32475135 0.91067600
vn 0.25144690 -0.32798714 0.91060359
vn -0.93005901 1.4949808e-2 0.36710590
vn -0.39934945 2.7719573e-3 0.91679460
vn -0.58196898 0.73221280 0.35380294
vn -0.25535424 0.32475135 0.91067600
vn -0.93005901 1.4949808e-2 -0.36710590
vn -0.93005901 1.4949808e-2 0.36710590
vn -0.58196898 0.73221280 -0.35380294
vn -0.58196898 0.73221280 0.35380294
vn -0.39934945 2.7719573e-3 -0.91679460
vn -0.93005901 1.4949808e-2 -0.36710590
vn -0.25535424 0.32475135 -0.91067600
vn -0.58196898 0.73221280 -0.35380294
vn 0.40046046 2.9575072e-3 -0.91630927
vn -0.39934945 2.7719573e-3 -0.91679460
vn 0.25144690 -0.32798714 -0.91060359
vn -0.25535424 0.32475135 -0.91067600
vn 0.93102196 1.7386306e-2 -0.36454880
vn 0.40046046 2.9575072e-3 -0.91630927
vn 0.55681928 -0.75173167 -0.35334372
vn 0.25144690 -0.32798714 -0.91060359
vn 0.0000000e+0 -1.00000000 0.0000000e+0
vn 0.93102196 1.7386306e-2 -0.36454880
vn 0.93102196 1.7386306e-2 0.36454880
vn 0.0000000e+0 -1.00000000 0.0000000e+0
vn 0.40046046 2.9575072e-3 0.91630927
vn 0.93102196 1.7386306e-2 0.36454880
vn 0.0000000e+0 -1.00000000 0.0000000e+0
vn -0.39934945 2.7719573e-3 0.91679460
vn 0.40046046 2.9575072e-3 0.91630927
vn 0.0000000e+0 -1.00000000 0.0000000e+0
vn -0.93005901 1.4949808e-2 0.36710590
vn -0.39934945 2.7719573e-3 0.91679460
vn 0.0000000e+0 -1.00000000 0.0000000e+0
vn -0.93005901 1.4949808e-2 -0.36710590
vn -0.93005901 1.4949808e-2 0.36710590
vn 0.0000000e+0 -1.00000000 0.0000000e+0
vn -0.39934945 2.7719573e-3 -0.91679460
vn -0.93005901 1.4949808e-2 -0.36710590
vn 0.0000000e+0 -1.00000000 0.0000000e+0
vn 0.40046046 2.9575072e-3 -0.91630927
vn -0.39934945 2.7719573e-3 -0.91679460
vn 0.0000000e+0 -1.00000000 0.0000000e+0
vn 0.93102196 1.7386306e-2 -0.36454880
vn 0.40046046 2.9575072e-3 -0.91630927
vn 0.55681928 -0.75173167 0.35334372
vn 0.25144690 -0.32798714 0.91060359
vn -2.1776394e-2 -0.92669889 0.37517324
vn -3.4531611e-3 -0.38951658 0.92101298
vn 0.55681928 -0.75173167 0.35334372
vn 0.55681928 -0.75173167 -0.35334372
vn -2.1776394e-2 -0.92669889 0.37517324
vn -2.1776394e-2 -0.92669889 -0.37517324
vn 0.55681928 -0.75173167 -0.35334372
vn 0.25144690 -0.32798714 -0.91060359
vn -2.1776394e-2 -0.92669889 -0.37517324
vn -3.4531611e-3 -0.38951658 -0.92101298
vn 0.25144690 -0.32798714 -0.91060359
vn -0.25535424 0.32475135 -0.91067600
vn -3.4531611e-3 -0.38951658 -0.92101298
vn -3.0602064e-3 0.38874029 -0.92134229
vn -0.25535424 0.32475135 -0.91067600
vn -0.58196898 0.73221280 -0.35380294
vn -3.0602064e-3 0.38874029 -0.92134229
vn -1.6307515e-2 0.92603764 -0.37707872
vn -0.58196898 0.73221280 -0.35380294
vn -0.58196898 0.73221280 0.35380294
vn -1.6307515e-2 0.92603764 -0.37707872
vn -1.6307515e-2 0.92603764 0.37707872
vn -0.58196898 0.73221280 0.35380294
vn -0.25535424 0.32475135 0.91067600
vn -1.6307515e-2 0.92603764 0.37707872
vn -3.0602064e-3 0.38874029 0.92134229
vn -0.25535424 0.32475135 0.91067600
vn 0.25144690 -0.32798714 0.91060359
vn -3.0602064e-3 0.38874029 0.92134229
vn -3.4531611e-3 -0.38951658 0.92101298
vn -2.1776394e-2 -0.92669889 0.37517324
vn -3.4531611e-3 -0.38951658 0.92101298
vn -1.00000000 0.0000000e+0 0.0000000e+0
vn -1.00000000 0.0000000e+0 0.0000000e+0
vn -2.1776394e-2 -0.92669889 0.37517324
vn -2.1776394e-2 -0.92669889 -0.37517324
vn -1.00000000 0.0000000e+0 0.0000000e+0
vn -1.00000000 0.0000000e+0 0.0000000e+0
vn -2.1776394e-2 -0.92669889 -0.37517324
vn -3.4531611e-3 -0.38951658 -0.92101298
vn -1.00000000 0.0000000e+0 0.0000000e+0
vn -1.00000000 0.0000000e+0 0.0000000e+0
vn -3.4531611e-3 -0.38951658 -0.92101298
vn -3.0602064e-3 0.38874029 -0.92134229
vn -1.00000000 0.0000000e+0 0.0000000e+0
vn -1.00000000 0.0000000e+0 0.0000000e+0
vn -3.0602064e-3 0.38874029 -0.92134229
vn -1.6307515e-2 0.92603764 -0.37707872
vn -1.00000000 0.0000000e+0 0.0000000e+0
vn -1.00000000 0.0000000e+0 0.0000000e+0
vn -1.6307515e-2 0.92603764 -0.37707872
vn -1.6307515e-2 0.92603764 0.37707872
vn -1.00000000 0.0000000e+0 0.0000000e+0
vn -1.00000000 0.0000000e+0 0.0000000e+0
vn -1.6307515e-2 0.92603764 0.37707872
vn -3.0602064e-3 0.38874029 0.92134229
vn -1.00000000 0.0000000e+0 0.0000000e+0
vn -1.00000000 0.0000000e+0 0.0000000e+0
vn -3.0602064e-3 0.38874029 0.92134229
vn -3.4531611e-3 -0.38951658 0.92101298
vn -1.00000000 0.0000000e+0 0.0000000e+0
vn -1.00000000 0.0000000e+0 0.0000000e+0
vn 1.00000000 0.0000000e+0 0.0000000e+0
vn 1.00000000 0.0000000e+0 0.0000000e+0
vn 0.0000000e+0 0.92387953 -0.38268343
vn 0.0000000e+0 0.38268343 -0.92387953
vn 1.00000000 0.0000000e+0 0.0000000e+0
vn 1.00000000 0.0000000e+0 0.0000000e+0
vn 0.0000000e+0 0.92387953 -0.38268343
vn 0.0000000e+0 0.92387953 0.38268343
vn 1.00000000 0.0000000e+0 0.0000000e+0
vn 1.00000000 0.0000000e+0 0.0000000e+0
vn 0.0000000e+0 0.92387953 0.38268343
vn 0.0000000e+0 0.38268343 0.92387953
vn 1.00000000 0.0000000e+0 0.0000000e+0
vn 1.00000000 0.0000000e+0 0.0000000e+0
vn 0.0000000e+0 0.38268343 0.92387953
vn 0.0000000e+0 -0.38268343 0.92387953
vn 1.00000000 0.0000000e+0 0.0000000e+0
vn 1.00000000 0.0000000e+0 0.0000000e+0
vn 0.0000000e+0 -0.38268343 0.92387953
vn 0.0000000e+0 -0.92387953 0.38268343
vn 1.00000000 0.0000000e+0 0.0000000e+0
vn 1.00000000 0.0000000e+0 0.0000000e+0
vn 0.0000000e+0 -0.92387953 0.38268343
vn 0.0000000e+0 -0.92387953 -0.38268343
vn 1.00000000 0.0000000e+0 0.0000000e+0
vn 1.00000000 0.0000000e+0 0.0000000e+0
vn 0.0000000e+0 -0.92387953 -0.38268343
vn 0.0000000e+0 -0.38268343 -0.92387953
vn 1.00000000 0.0000000e+0 0.0000000e+0
vn 1.00000000 0.0000000e+0 0.0000000e+0
vn 0.0000000e+0 -0.38268343 -0.92387953
vn 0.0000000e+0 0.38268343 -0.92387953
vn 0.0000000e+0 -0.92387953 0.38268343
vn 0.0000000e+0 -0.38268343 0.92387953
vn -1.00000000 0.0000000e+0 0.0000000e+0
vn -1.00000000 0.0000000e+0 0.0000000e+0
vn 0.0000000e+0 -0.92387953 0.38268343
vn 0.0000000e+0 -0.92387953 -0.38268343
vn -1.00000000 0.0000000e+0 0.0000000e+0
vn -1.00000000 0.0000000e+0 0.0000000e+0
vn 0.0000000e+0 -0.92387953 -0.38268343
vn 0.0000000e+0 -0.38268343 -0.92387953
vn -1.00000000 0.0000000e+0 0.0000000e+0
vn -1.00000000 0.0000000e+0 0.0000000e+0
vn 0.0000000e+0 -0.38268343 -0.92387953
vn 0.0000000e+0 0.38268343 -0.92387953
vn -1.00000000 0.0000000e+0 0.0000000e+0
vn -1.00000000 0.0000000e+0 0.0000000e+0
vn 0.0000000e+0 0.38268343 -0.92387953
vn 0.0000000e+0 0.92387953 -0.38268343
vn -1.00000000 0.0000000e+0 0.0000000e+0
vn -1.00000000 0.0000000e+0 0.0000000e+0
vn 0.0000000e+0 0.92387953 -0.38268343
vn 0.0000000e+0 0.92387953 0.38268343
vn -1.00000000 0.0000000e+0 0.0000000e+0
vn -1.00000000 0.0000000e+0 0.0000000e+0
vn 0.0000000e+0 0.92387953 0.38268343
vn 0.0000000e+0 0.38268343 0.92387953
vn -1.00000000 0.0000000e+0 0.0000000e+0
vn -1.00000000 0.0000000e+0 0.0000000e+0
vn 0.0000000e+0 0.38268343 0.92387953
vn 0.0000000e+0 -0.38268343 0.92387953
vn -1.00000000 0.0000000e+0 0.0000000e+0
vn -1.00000000 0.0000000e+0 0.0000000e+0
vn 0.0000000e+0 -0.92387953 0.38268343
vn 0.0000000e+0 -0.38268343 0.92387953
vn 1.00000000 0.0000000e+0 0.0000000e+0
vn 1.00000000 0.0000000e+0 0.0000000e+0
vn 0.0000000e+0 -0.92387953 0.38268343
vn 0.0000000e+0 -0.92387953 -0.38268343
vn 1.00000000 0.0000000e+0 0.0000000e+0
vn 1.00000000 0.0000000e+0 0.0000000e+0
vn 0.0000000e+0 -0.92387953 -0.38268343
vn 0.0000000e+0 -0.38268343 -0.92387953
vn 1.00000000 0.0000000e+0 0.0000000e+0
vn 1.00000000 0.0000000e+0 0.0000000e+0
vn 0.0000000e+0 -0.38268343 -0.92387953
vn 0.0000000e+0 0.38268343 -0.92387953
vn 1.00000000 0.0000000e+0 0.0000000e+0
vn 1.00000000 0.0000000e+0 0.0000000e+0
vn 0.0000000e+0 0.38268343 -0.92387953
vn 0.0000000e+0 0.92387953 -0.38268343
vn 1.00000000 0.0000000e+0 0.0000000e+0
vn 1.00000000 0.0000000e+0 0.0000000e+0
vn 0.0000000e+0 0.92387953 -0.38268343
vn 0.0000000e+0 0.92387953 0.38268343
vn 1.00000000 0.0000000e+0 0.0000000e+0
vn 1.00000000 0.0000000e+0 0.0000000e+0
vn 0.0000000e+0 0.92387953 0.38268343
vn 0.0000000e+0 0.38268343 0.92387953
vn 1.00000000 0.0000000e+0 0.0000000e+0
vn 1.00000000 0.0000000e+0 0.0000000e+0
vn 0.0000000e+0 0.38268343 0.92387953
vn 0.0000000e+0 -0.38268343 0.92387953
vn 1.00000000 0.0000000e+0 0.0000000e+0
vn 1.00000000 0.0000000e+0 0.0000000e+0
vn 1.00000000 1.2266347e-16 0.0000000e+0
vn 0.0000000e+0 0.92387953 -0.38268343
vn 0.0000000e+0 0.38268343 -0.92387953
vn 1.00000000 1.2266347e-16 0.0000000e+0
vn 0.0000000e+0 0.92387953 -0.38268343
vn 0.0000000e+0 0.92387953 0.38268343
vn 1.00000000 1.2266347e-16 0.0000000e+0
vn 0.0000000e+0 0.92387953 0.38268343
vn 0.0000000e+0 0.38268343 0.92387953
vn 1.00000000 1.2266347e-16 0.0000000e+0
vn 0.0000000e+0 0.38268343 0.92387953
vn 0.0000000e+0 -0.38268343 0.92387953
vn 1.00000000 1.2266347e-16 0.0000000e+0
vn 0.0000000e+0 -0.38268343 0.92387953
vn 0.0000000e+0 -0.92387953 0.38268343
vn 1.00000000 1.2266347e-16 0.0000000e+0
vn 0.0000000e+0 -0.92387953 0.38268343
vn 0.0000000e+0 -0.92387953 -0.38268343
vn 1.00000000 1.2266347e-16 0.0000000e+0
vn 0.0000000e+0 -0.92387953 -0.38268343
vn 0.0000000e+0 -0.38268343 -0.92387953
vn 1.00000000 1.2266347e-16 0.0000000e+0
vn 0.0000000e+0 -0.38268343 -0.92387953
vn 0.0000000e+0 0.38268343 -0.92387953
g cylinder1_default
usemtl default
s 1
f 2//6 10//38 9//35 1//2
f 2//8 17//58 24//86 3//12
f 5//18 13//47 12//43 4//13
f 5//19 22//77 21//74 6//24
f 7//26 15//53 14//49 6//21
f 7//27 20//69 19//66 8//32
f 18//63 26//93 25//89 17//59
f 21//75 29//105 28//102 20//72
f 23//83 31//113 30//110 22//80
f 27//100 43//164 42//159 26//95
f 30//111 46//175 45//171 29//107
f 32//119 48//183 47//179 31//115
f 33//122 49//188 50//191 34//125
f 33//124 57//219 64//240 40//152
f 35//130 51//196 52//200 36//134
f 35//131 59//224 58//222 34//128
f 37//138 53//204 54//208 38//142
f 37//139 61//230 60//228 36//136
f 39//146 55//212 56//216 40//150
f 39//147 63//236 62//234 38//144
f 44//166 45//169 53//201 52//198
f 46//174 47//177 55//209 54//206
f 49//186 56//214 48//182 41//154
s 2
f 1//3 18//61 17//57 2//7
f 4//14 12//44 11//40 3//9
f 4//15 23//81 22//78 5//20
f 6//22 14//50 13//46 5//17
f 6//23 21//73 20//70 7//28
f 8//30 16//56 15//52 7//25
f 19//67 27//97 26//94 18//64
f 22//79 30//109 29//106 21//76
f 24//87 32//117 31//114 23//84
f 26//96 42//160 41//155 25//91
f 28//103 44//167 43//163 27//99
f 31//116 47//180 46//176 30//112
f 34//126 50//192 51//195 35//129
f 36//133 52//199 53//203 37//137
f 38//141 54//207 55//211 39//145
f 40//149 56//215 49//187 33//121
f 45//170 46//173 54//205 53//202
f 47//178 48//181 56//213 55//210
f 58//220 59//223 60//226 61//229 62//232 63//235 64//238 57//217
s 3
f 1//1 9//34 16//55 8//29
f 3//10 11//41 10//37 2//5
f 3//11 24//85 23//82 4//16
f 17//60 25//90 32//118 24//88
f 20//71 28//101 27//98 19//68
f 29//108 45//172 44//168 28//104
f 34//127 58//221 57//218 33//123
f 36//135 60//227 59//225 35//132
f 38//143 62//233 61//231 37//140
f 40//151 64//239 63//237 39//148
f 41//153 42//157 50//189 49//185
f 43//162 44//165 52//197 51//194
s 4
f 8//31 19//65 18//62 1//4
f 10//36 11//39 12//42 13//45 14//48 15//51 16//54 9//33
f 25//92 41//156 48//184 32//120
f 42//158 43//161 51//193 50//190
