# Exported from Wings 3D 1.4.1
mtllib person.mtl
o cube10
#8 vertices, 6 faces
v -0.37733333 0.0000000e+0 0.19422222
v -0.47733333 1.28177778 0.29422222
v 0.47733333 1.28177778 0.29422222
v 0.37733333 0.0000000e+0 0.19422222
v -0.37733333 0.0000000e+0 -0.19422222
v -0.47733333 1.28177778 -0.29422222
v 0.47733333 1.28177778 -0.29422222
v 0.37733333 0.0000000e+0 -0.19422222
vn 0.0000000e+0 -7.7780294e-2 0.99697052
vn 0.0000000e+0 -1.00000000 0.0000000e+0
vn -0.99697052 -7.7780294e-2 0.0000000e+0
vn 0.0000000e+0 -7.7780294e-2 0.99697052
vn 0.0000000e+0 1.00000000 0.0000000e+0
vn -0.99697052 -7.7780294e-2 0.0000000e+0
vn 0.0000000e+0 -7.7780294e-2 0.99697052
vn 0.99697052 -7.7780294e-2 0.0000000e+0
vn 0.0000000e+0 1.00000000 0.0000000e+0
vn 0.0000000e+0 -7.7780294e-2 0.99697052
vn 0.99697052 -7.7780294e-2 0.0000000e+0
vn 0.0000000e+0 -1.00000000 0.0000000e+0
vn 0.0000000e+0 -1.00000000 0.0000000e+0
vn 0.0000000e+0 -7.7780294e-2 -0.99697052
vn -0.99697052 -7.7780294e-2 0.0000000e+0
vn 0.0000000e+0 1.00000000 0.0000000e+0
vn 0.0000000e+0 -7.7780294e-2 -0.99697052
vn -0.99697052 -7.7780294e-2 0.0000000e+0
vn 0.99697052 -7.7780294e-2 0.0000000e+0
vn 0.0000000e+0 1.00000000 0.0000000e+0
vn 0.0000000e+0 -7.7780294e-2 -0.99697052
vn 0.99697052 -7.7780294e-2 0.0000000e+0
vn 0.0000000e+0 -1.00000000 0.0000000e+0
vn 0.0000000e+0 -7.7780294e-2 -0.99697052
g cube10_default
usemtl default
s 1
f 1//1 4//10 3//7 2//4
f 6//17 7//21 8//24 5//14
s 2
f 2//6 6//18 5//15 1//3
f 4//11 8//22 7//19 3//8
s 3
f 1//2 5//13 8//23 4//12
f 3//9 7//20 6//16 2//5
o cube9
#12 vertices, 10 faces
v -0.40800000 1.23466667 0.24622222
v 0.40800000 1.23466667 0.24622222
v -0.40800000 1.23466667 -0.24622222
v 0.40800000 1.23466667 -0.24622222
v -0.40800000 2.21600000 0.24622222
v 0.40800000 2.21600000 0.24622222
v -0.40800000 2.21600000 -0.24622222
v 0.40800000 2.21600000 -0.24622222
v -0.32977778 2.29422222 0.16800000
v 0.32977778 2.29422222 0.16800000
v 0.32977778 2.29422222 -0.16800000
v -0.32977778 2.29422222 -0.16800000
vn 0.0000000e+0 0.0000000e+0 1.00000000
vn 0.0000000e+0 -1.00000000 0.0000000e+0
vn -1.00000000 -5.6567070e-17 0.0000000e+0
vn 0.0000000e+0 0.0000000e+0 1.00000000
vn 1.00000000 0.0000000e+0 0.0000000e+0
vn 0.0000000e+0 -1.00000000 0.0000000e+0
vn 0.0000000e+0 -1.00000000 0.0000000e+0
vn 0.0000000e+0 0.0000000e+0 -1.00000000
vn -1.00000000 -5.6567070e-17 0.0000000e+0
vn 1.00000000 0.0000000e+0 0.0000000e+0
vn 0.0000000e+0 -1.00000000 0.0000000e+0
vn 0.0000000e+0 0.0000000e+0 -1.00000000
vn 0.0000000e+0 0.0000000e+0 1.00000000
vn -1.00000000 -5.6567070e-17 0.0000000e+0
vn -0.70710678 0.70710678 0.0000000e+0
vn 0.0000000e+0 0.70710678 0.70710678
vn 0.0000000e+0 0.0000000e+0 1.00000000
vn 1.00000000 0.0000000e+0 0.0000000e+0
vn 0.0000000e+0 0.70710678 0.70710678
vn 0.70710678 0.70710678 0.0000000e+0
vn 0.0000000e+0 0.0000000e+0 -1.00000000
vn -1.00000000 -5.6567070e-17 0.0000000e+0
vn -0.70710678 0.70710678 0.0000000e+0
vn 0.0000000e+0 0.70710678 -0.70710678
vn 1.00000000 0.0000000e+0 0.0000000e+0
vn 0.0000000e+0 0.0000000e+0 -1.00000000
vn 0.0000000e+0 0.70710678 -0.70710678
vn 0.70710678 0.70710678 0.0000000e+0
vn 0.0000000e+0 1.00000000 0.0000000e+0
vn -0.70710678 0.70710678 0.0000000e+0
vn 0.0000000e+0 0.70710678 0.70710678
vn 0.0000000e+0 1.00000000 0.0000000e+0
vn 0.0000000e+0 0.70710678 0.70710678
vn 0.70710678 0.70710678 0.0000000e+0
vn 0.0000000e+0 1.00000000 0.0000000e+0
vn 0.0000000e+0 0.70710678 -0.70710678
vn 0.70710678 0.70710678 0.0000000e+0
vn 0.0000000e+0 1.00000000 0.0000000e+0
vn -0.70710678 0.70710678 0.0000000e+0
vn 0.0000000e+0 0.70710678 -0.70710678
g cube9_default
usemtl default
s 1
f 9//25 10//28 14//41 13//37
f 13//39 17//54 20//63 15//47
f 14//44 16//52 19//61 18//58
f 15//45 16//50 12//36 11//32
s 2
f 12//34 16//49 14//42 10//29
f 13//38 15//46 11//33 9//27
f 16//51 15//48 20//64 19//60
f 18//57 17//55 13//40 14//43
s 3
f 9//26 11//31 12//35 10//30
f 18//56 19//59 20//62 17//53
o cube6
#28 vertices, 25 faces
v 0.30000000 2.78749508 -3.8474111e-2
v -0.30000000 2.78749508 -3.8474111e-2
v -0.30000000 2.63883303 7.0535870e-2
v 0.30000000 2.63883303 7.0535870e-2
v -0.30000000 2.78749508 0.24736742
v -0.24736742 2.78749508 0.30000000
v 0.24736742 2.78749508 0.30000000
v 0.30000000 2.78749508 0.24736742
v -0.30000000 2.80415436 -0.24753373
v -0.24736742 2.80833523 -0.30000000
v 0.24736742 2.80833523 -0.30000000
v 0.30000000 2.80415436 -0.24753373
v 0.24736742 2.57310642 0.30000000
v 0.30000000 2.58759942 0.24940216
v -0.30000000 2.58759942 0.24940216
v -0.24736742 2.57310642 0.30000000
v 0.30000000 2.93486250 -0.24736742
v 0.30000000 2.93486250 0.24736742
v -0.30000000 2.93486250 0.24736742
v -0.30000000 2.93486250 -0.24736742
v -0.24736742 2.93486250 -0.30000000
v 0.24736742 2.93486250 -0.30000000
v 0.24736742 2.93486250 0.30000000
v -0.24736742 2.93486250 0.30000000
v -0.24736742 2.98749508 0.24736742
v 0.24736742 2.98749508 0.24736742
v 0.24736742 2.98749508 -0.24736742
v -0.24736742 2.98749508 -0.24736742
vn 1.00000000 -5.8490220e-16 0.0000000e+0
vn 0.0000000e+0 -0.99684005 -7.9434926e-2
vn 0.0000000e+0 -0.59133241 -0.80642791
vn 1.00000000 0.0000000e+0 0.0000000e+0
vn -1.00000000 -3.8993480e-16 0.0000000e+0
vn 0.0000000e+0 -0.99684005 -7.9434926e-2
vn 0.0000000e+0 -0.59133241 -0.80642791
vn -1.00000000 0.0000000e+0 0.0000000e+0
vn 0.0000000e+0 -0.96134066 -0.27536181
vn 0.0000000e+0 -0.59133241 -0.80642791
vn -1.00000000 0.0000000e+0 0.0000000e+0
vn 0.0000000e+0 -0.96134066 -0.27536181
vn 0.0000000e+0 -0.59133241 -0.80642791
vn 1.00000000 0.0000000e+0 0.0000000e+0
vn -1.00000000 -3.8993480e-16 0.0000000e+0
vn -1.00000000 0.0000000e+0 0.0000000e+0
vn -0.69992213 3.5078164e-3 0.71421055
vn -0.70710678 0.0000000e+0 0.70710678
vn 0.0000000e+0 0.0000000e+0 1.00000000
vn 0.0000000e+0 0.0000000e+0 1.00000000
vn -0.69992213 3.5078164e-3 0.71421055
vn -0.70710678 0.0000000e+0 0.70710678
vn 0.0000000e+0 0.0000000e+0 1.00000000
vn 0.0000000e+0 0.0000000e+0 1.00000000
vn 0.70710678 0.0000000e+0 0.70710678
vn 0.69992213 3.5078164e-3 0.71421055
vn 1.00000000 -5.8490220e-16 0.0000000e+0
vn 1.00000000 0.0000000e+0 0.0000000e+0
vn 0.70710678 0.0000000e+0 0.70710678
vn 0.69992213 3.5078164e-3 0.71421055
vn -1.00000000 -3.8993480e-16 0.0000000e+0
vn 0.0000000e+0 -0.99684005 -7.9434926e-2
vn -0.70655654 4.5753689e-4 -0.70765645
vn 0.0000000e+0 0.0000000e+0 -1.00000000
vn 0.0000000e+0 -0.99684005 -7.9434926e-2
vn -0.70655654 4.5753689e-4 -0.70765645
vn 0.0000000e+0 0.0000000e+0 -1.00000000
vn 0.0000000e+0 -0.99684005 -7.9434926e-2
vn 0.70655654 4.5753689e-4 -0.70765645
vn 1.00000000 -5.8490220e-16 0.0000000e+0
vn 0.0000000e+0 -0.99684005 -7.9434926e-2
vn 0.70655654 4.5753689e-4 -0.70765645
vn 0.0000000e+0 -0.96134066 -0.27536181
vn 0.0000000e+0 0.0000000e+0 1.00000000
vn 0.69992213 3.5078164e-3 0.71421055
vn 0.0000000e+0 -0.96134066 -0.27536181
vn 1.00000000 0.0000000e+0 0.0000000e+0
vn 0.69992213 3.5078164e-3 0.71421055
vn 0.0000000e+0 -0.96134066 -0.27536181
vn -1.00000000 0.0000000e+0 0.0000000e+0
vn -0.69992213 3.5078164e-3 0.71421055
vn 0.0000000e+0 -0.96134066 -0.27536181
vn 0.0000000e+0 0.0000000e+0 1.00000000
vn -0.69992213 3.5078164e-3 0.71421055
vn 1.00000000 -5.8490220e-16 0.0000000e+0
vn 0.70655654 4.5753689e-4 -0.70765645
vn 0.70710678 0.70710678 0.0000000e+0
vn 0.57735027 0.57735027 -0.57735027
vn 1.00000000 -5.8490220e-16 0.0000000e+0
vn 0.70710678 0.0000000e+0 0.70710678
vn 0.70710678 0.70710678 0.0000000e+0
vn 0.57735027 0.57735027 0.57735027
vn -1.00000000 -3.8993480e-16 0.0000000e+0
vn -0.70710678 0.0000000e+0 0.70710678
vn -0.70710678 0.70710678 0.0000000e+0
vn -0.57735027 0.57735027 0.57735027
vn -1.00000000 -3.8993480e-16 0.0000000e+0
vn -0.70710678 0.70710678 0.0000000e+0
vn -0.70655654 4.5753689e-4 -0.70765645
vn -0.57735027 0.57735027 -0.57735027
vn 0.0000000e+0 0.0000000e+0 -1.00000000
vn -0.70655654 4.5753689e-4 -0.70765645
vn 0.0000000e+0 0.70710678 -0.70710678
vn -0.57735027 0.57735027 -0.57735027
vn 0.0000000e+0 0.0000000e+0 -1.00000000
vn 0.0000000e+0 0.70710678 -0.70710678
vn 0.70655654 4.5753689e-4 -0.70765645
vn 0.57735027 0.57735027 -0.57735027
vn 0.0000000e+0 0.0000000e+0 1.00000000
vn 0.70710678 0.0000000e+0 0.70710678
vn 0.0000000e+0 0.70710678 0.70710678
vn 0.57735027 0.57735027 0.57735027
vn 0.0000000e+0 0.0000000e+0 1.00000000
vn -0.70710678 0.0000000e+0 0.70710678
vn 0.0000000e+0 0.70710678 0.70710678
vn -0.57735027 0.57735027 0.57735027
vn 0.0000000e+0 1.00000000 0.0000000e+0
vn -0.70710678 0.70710678 0.0000000e+0
vn 0.0000000e+0 0.70710678 0.70710678
vn -0.57735027 0.57735027 0.57735027
vn 0.0000000e+0 1.00000000 0.0000000e+0
vn 0.0000000e+0 0.70710678 0.70710678
vn 0.70710678 0.70710678 0.0000000e+0
vn 0.57735027 0.57735027 0.57735027
vn 0.0000000e+0 1.00000000 0.0000000e+0
vn 0.0000000e+0 0.70710678 -0.70710678
vn 0.70710678 0.70710678 0.0000000e+0
vn 0.57735027 0.57735027 -0.57735027
vn 0.0000000e+0 1.00000000 0.0000000e+0
vn -0.70710678 0.70710678 0.0000000e+0
vn 0.0000000e+0 0.70710678 -0.70710678
vn -0.57735027 0.57735027 -0.57735027
g cube6_default
usemtl default
s 1
f 21//66 22//70 29//96 30//99 31//102 32//105
f 21//68 28//92 34//111 24//78
f 25//81 35//115 36//118 26//85
f 27//87 43//143 44//147 26//83
f 42//142 47//162 37//122
f 44//150 45//154 39//130
f 46//158 43//146 38//126
f 46//155 47//159 48//163 45//151
f 48//166 41//138 40//134
s 2
f 21//67 24//77 23//74 22//71
f 26//84 36//117 33//108 27//88
f 26//86 44//148 39//128 25//82
f 28//93 38//124 43//144 27//89
f 29//97 40//133 41//136 30//100
f 32//106 31//103 42//141 37//120
f 37//121 47//161 46//157 38//125
f 39//129 45//152 48//164 40//132
f 41//137 48//165 47//160 42//140
f 43//145 46//156 45//153 44//149
s 3
f 22//69 25//79 39//127 40//131 29//95
f 24//76 34//110 33//107 36//116 35//113 23//73
f 30//98 41//135 42//139 31//101
f 32//104 37//119 38//123 28//91 21//65
s 4
f 23//75 35//114 25//80 22//72
f 27//90 33//109 34//112 28//94
o cube4
#24 vertices, 26 faces
v -0.19880000 2.79880000 0.25000000
v -0.19880000 2.40120000 0.25000000
v 0.19880000 2.40120000 0.25000000
v 0.19880000 2.79880000 0.25000000
v -0.25000000 2.40120000 0.19880000
v -0.25000000 2.79880000 0.19880000
v -0.25000000 2.79880000 -0.19880000
v -0.25000000 2.40120000 -0.19880000
v -0.19880000 2.85000000 0.19880000
v 0.19880000 2.85000000 0.19880000
v 0.19880000 2.85000000 -0.19880000
v -0.19880000 2.85000000 -0.19880000
v -0.19880000 2.40120000 -0.25000000
v -0.19880000 2.79880000 -0.25000000
v 0.19880000 2.79880000 -0.25000000
v 0.19880000 2.40120000 -0.25000000
v 0.25000000 2.79880000 0.19880000
v 0.25000000 2.40120000 0.19880000
v 0.25000000 2.40120000 -0.19880000
v 0.25000000 2.79880000 -0.19880000
v 0.19880000 2.35000000 0.19880000
v -0.19880000 2.35000000 0.19880000
v -0.19880000 2.35000000 -0.19880000
v 0.19880000 2.35000000 -0.19880000
vn 0.0000000e+0 0.0000000e+0 1.00000000
vn -0.70710678 0.0000000e+0 0.70710678
vn 0.0000000e+0 0.70710678 0.70710678
vn -0.57735027 0.57735027 0.57735027
vn 0.0000000e+0 0.0000000e+0 1.00000000
vn 0.0000000e+0 -0.70710678 0.70710678
vn -0.70710678 0.0000000e+0 0.70710678
vn -0.57735027 -0.57735027 0.57735027
vn 0.0000000e+0 0.0000000e+0 1.00000000
vn 0.0000000e+0 -0.70710678 0.70710678
vn 0.70710678 0.0000000e+0 0.70710678
vn 0.57735027 -0.57735027 0.57735027
vn 0.0000000e+0 0.0000000e+0 1.00000000
vn 0.0000000e+0 0.70710678 0.70710678
vn 0.70710678 0.0000000e+0 0.70710678
vn 0.57735027 0.57735027 0.57735027
vn -1.00000000 0.0000000e+0 0.0000000e+0
vn -0.70710678 0.0000000e+0 0.70710678
vn -0.70710678 -0.70710678 0.0000000e+0
vn -0.57735027 -0.57735027 0.57735027
vn -1.00000000 0.0000000e+0 0.0000000e+0
vn -0.70710678 0.0000000e+0 0.70710678
vn -0.70710678 0.70710678 0.0000000e+0
vn -0.57735027 0.57735027 0.57735027
vn -1.00000000 0.0000000e+0 0.0000000e+0
vn -0.70710678 0.70710678 0.0000000e+0
vn -0.70710678 0.0000000e+0 -0.70710678
vn -0.57735027 0.57735027 -0.57735027
vn -1.00000000 0.0000000e+0 0.0000000e+0
vn -0.70710678 0.0000000e+0 -0.70710678
vn -0.70710678 -0.70710678 0.0000000e+0
vn -0.57735027 -0.57735027 -0.57735027
vn 0.0000000e+0 1.00000000 0.0000000e+0
vn -0.70710678 0.70710678 0.0000000e+0
vn 0.0000000e+0 0.70710678 0.70710678
vn -0.57735027 0.57735027 0.57735027
vn 0.0000000e+0 1.00000000 0.0000000e+0
vn 0.0000000e+0 0.70710678 0.70710678
vn 0.70710678 0.70710678 0.0000000e+0
vn 0.57735027 0.57735027 0.57735027
vn 0.0000000e+0 1.00000000 0.0000000e+0
vn 0.70710678 0.70710678 0.0000000e+0
vn 0.0000000e+0 0.70710678 -0.70710678
vn 0.57735027 0.57735027 -0.57735027
vn 0.0000000e+0 1.00000000 0.0000000e+0
vn -0.70710678 0.70710678 0.0000000e+0
vn 0.0000000e+0 0.70710678 -0.70710678
vn -0.57735027 0.57735027 -0.57735027
vn 0.0000000e+0 0.0000000e+0 -1.00000000
vn -0.70710678 0.0000000e+0 -0.70710678
vn 0.0000000e+0 -0.70710678 -0.70710678
vn -0.57735027 -0.57735027 -0.57735027
vn 0.0000000e+0 0.0000000e+0 -1.00000000
vn -0.70710678 0.0000000e+0 -0.70710678
vn 0.0000000e+0 0.70710678 -0.70710678
vn -0.57735027 0.57735027 -0.57735027
vn 0.0000000e+0 0.0000000e+0 -1.00000000
vn 0.0000000e+0 0.70710678 -0.70710678
vn 0.70710678 0.0000000e+0 -0.70710678
vn 0.57735027 0.57735027 -0.57735027
vn 0.0000000e+0 0.0000000e+0 -1.00000000
vn 0.70710678 0.0000000e+0 -0.70710678
vn 0.0000000e+0 -0.70710678 -0.70710678
vn 0.57735027 -0.57735027 -0.57735027
vn 1.00000000 0.0000000e+0 0.0000000e+0
vn 0.70710678 0.70710678 0.0000000e+0
vn 0.70710678 0.0000000e+0 0.70710678
vn 0.57735027 0.57735027 0.57735027
vn 1.00000000 0.0000000e+0 0.0000000e+0
vn 0.70710678 0.0000000e+0 0.70710678
vn 0.70710678 -0.70710678 0.0000000e+0
vn 0.57735027 -0.57735027 0.57735027
vn 1.00000000 0.0000000e+0 0.0000000e+0
vn 0.70710678 0.0000000e+0 -0.70710678
vn 0.70710678 -0.70710678 0.0000000e+0
vn 0.57735027 -0.57735027 -0.57735027
vn 1.00000000 0.0000000e+0 0.0000000e+0
vn 0.70710678 0.70710678 0.0000000e+0
vn 0.70710678 0.0000000e+0 -0.70710678
vn 0.57735027 0.57735027 -0.57735027
vn 0.0000000e+0 -1.00000000 0.0000000e+0
vn 0.0000000e+0 -0.70710678 0.70710678
vn 0.70710678 -0.70710678 0.0000000e+0
vn 0.57735027 -0.57735027 0.57735027
vn 0.0000000e+0 -1.00000000 0.0000000e+0
vn 0.0000000e+0 -0.70710678 0.70710678
vn -0.70710678 -0.70710678 0.0000000e+0
vn -0.57735027 -0.57735027 0.57735027
vn 0.0000000e+0 -1.00000000 0.0000000e+0
vn -0.70710678 -0.70710678 0.0000000e+0
vn 0.0000000e+0 -0.70710678 -0.70710678
vn -0.57735027 -0.57735027 -0.57735027
vn 0.0000000e+0 -1.00000000 0.0000000e+0
vn 0.70710678 -0.70710678 0.0000000e+0
vn 0.0000000e+0 -0.70710678 -0.70710678
vn 0.57735027 -0.57735027 -0.57735027
g cube4_default
usemtl default
s 1
f 50//171 51//175 52//179 49//167
f 56//197 71//256 70//253 53//185
f 57//202 54//190 49//170
f 58//203 59//207 60//211 57//199
f 60//214 62//222 55//194
f 64//229 72//261 71//257 61//217
f 65//234 58//206 52//182
f 66//235 67//239 68//243 65//231
f 68//246 63//226 59//210
f 69//250 66//238 51//178
s 2
f 49//168 54//188 53//184 50//173
f 50//172 70//252 69//248 51//176
f 51//177 66//236 65//233 52//181
f 52//180 58//204 57//201 49//169
f 54//189 57//200 60//212 55//192
f 58//205 65//232 68//244 59//208
f 61//218 71//258 56//198
f 62//219 63//223 64//227 61//215
f 67//242 72//262 64//230
s 3
f 50//174 53//186 70//254
f 54//187 55//191 56//195 53//183
f 59//209 63//224 62//221 60//213
f 63//225 68//245 67//240 64//228
f 70//251 71//255 72//259 69//247
s 4
f 55//193 62//220 61//216 56//196
f 66//237 69//249 72//260 67//241
