# Exported from Wings 3D 1.4.1
mtllib person.mtl
o cube4_copy8
#34 vertices, 32 faces
v -0.27500000 2.60692751 -0.21868000
v -0.27500000 2.38132000 -0.21868000
v -0.21868000 2.38132000 -0.27500000
v -0.21868000 2.60692751 -0.27500000
v 0.21868000 2.60692751 -0.27500000
v 0.21868000 2.38132000 -0.27500000
v 0.27500000 2.38132000 -0.21868000
v 0.27500000 2.60692751 -0.21868000
v -0.21868000 2.32500000 -0.21868000
v 0.21868000 2.32500000 -0.21868000
v 0.27500000 2.60692751 -5.0977452e-2
v -0.27500000 2.60692751 -5.0977452e-2
v 0.27500000 2.44430159 0.10934000
v -0.27500000 2.44430159 0.10934000
v -0.27500000 2.79711262 0.10934000
v 0.27500000 2.79711262 0.10934000
v 0.27500000 2.79711262 0.0000000e+0
v -0.27500000 2.79711262 0.0000000e+0
v -9.2476314e-2 2.45425440 2.6761418e-2
v -9.2476314e-2 2.53399311 2.6761418e-2
v 9.2476314e-2 2.53399311 2.6761418e-2
v 9.2476314e-2 2.45425440 2.6761418e-2
v -9.2476314e-2 2.45425440 -0.21537050
v -0.14410446 2.42441797 -0.27500000
v -9.2476314e-2 2.53399311 -0.21537050
v -0.14410446 2.56382954 -0.27500000
v 9.2476314e-2 2.53399311 -0.21537050
v 0.14410446 2.56382954 -0.27500000
v 9.2476314e-2 2.45425440 -0.21537050
v 0.14410446 2.42441797 -0.27500000
v -0.21868000 2.32500000 7.0852320e-2
v 0.21868000 2.32500000 7.0852320e-2
v 0.27500000 2.38132000 7.0852320e-2
v -0.27500000 2.38132000 7.0852320e-2
vn 0.0000000e+0 1.00000000 9.2487402e-16
vn -0.70710678 0.0000000e+0 -0.70710678
vn -1.00000000 0.0000000e+0 0.0000000e+0
vn -0.70710678 -0.70710678 0.0000000e+0
vn -0.57735027 -0.57735027 -0.57735027
vn -0.70710678 0.0000000e+0 -0.70710678
vn -1.00000000 0.0000000e+0 0.0000000e+0
vn 0.0000000e+0 -0.70710678 -0.70710678
vn -0.57735027 -0.57735027 -0.57735027
vn -0.70710678 0.0000000e+0 -0.70710678
vn 0.0000000e+0 0.0000000e+0 -1.00000000
vn 0.0000000e+0 0.0000000e+0 -1.00000000
vn 0.0000000e+0 1.00000000 9.2487402e-16
vn -0.70710678 0.0000000e+0 -0.70710678
vn 0.0000000e+0 0.0000000e+0 -1.00000000
vn 0.0000000e+0 0.0000000e+0 -1.00000000
vn 0.0000000e+0 1.00000000 9.2487402e-16
vn 0.70710678 0.0000000e+0 -0.70710678
vn 0.0000000e+0 0.0000000e+0 -1.00000000
vn 0.0000000e+0 0.0000000e+0 -1.00000000
vn 0.0000000e+0 -0.70710678 -0.70710678
vn 0.57735027 -0.57735027 -0.57735027
vn 0.70710678 0.0000000e+0 -0.70710678
vn 0.0000000e+0 0.0000000e+0 -1.00000000
vn 0.0000000e+0 0.0000000e+0 -1.00000000
vn 0.57735027 -0.57735027 -0.57735027
vn 0.70710678 0.0000000e+0 -0.70710678
vn 0.70710678 -0.70710678 0.0000000e+0
vn 1.00000000 0.0000000e+0 0.0000000e+0
vn 0.0000000e+0 1.00000000 9.2487402e-16
vn 0.70710678 0.0000000e+0 -0.70710678
vn 1.00000000 0.0000000e+0 0.0000000e+0
vn -0.70710678 -0.70710678 0.0000000e+0
vn 0.0000000e+0 -0.70710678 -0.70710678
vn -0.57735027 -0.57735027 -0.57735027
vn 0.0000000e+0 -1.00000000 0.0000000e+0
vn 0.0000000e+0 -0.70710678 -0.70710678
vn 0.57735027 -0.57735027 -0.57735027
vn 0.0000000e+0 -1.00000000 0.0000000e+0
vn 0.70710678 -0.70710678 0.0000000e+0
vn 0.0000000e+0 1.00000000 9.2487402e-16
vn 1.00000000 0.0000000e+0 0.0000000e+0
vn 0.0000000e+0 0.25890199 -0.96590360
vn 1.00000000 0.0000000e+0 0.0000000e+0
vn 0.0000000e+0 1.00000000 9.2487402e-16
vn 0.0000000e+0 0.25890199 -0.96590360
vn -1.00000000 0.0000000e+0 0.0000000e+0
vn -1.00000000 0.0000000e+0 0.0000000e+0
vn 0.0000000e+0 0.0000000e+0 1.00000000
vn 1.00000000 0.0000000e+0 0.0000000e+0
vn 1.00000000 0.0000000e+0 0.0000000e+0
vn 0.0000000e+0 -0.52143944 0.85328829
vn 0.0000000e+0 0.0000000e+0 1.00000000
vn -1.00000000 0.0000000e+0 0.0000000e+0
vn -1.00000000 0.0000000e+0 0.0000000e+0
vn 0.0000000e+0 -0.52143944 0.85328829
vn 6.2541587e-2 -6.2541587e-2 0.99608087
vn -3.6792405e-2 -0.32250843 0.94585127
vn 0.0000000e+0 1.00000000 0.0000000e+0
vn 0.0000000e+0 0.0000000e+0 1.00000000
vn -1.00000000 0.0000000e+0 0.0000000e+0
vn 0.0000000e+0 1.00000000 0.0000000e+0
vn 0.0000000e+0 0.0000000e+0 1.00000000
vn 1.00000000 0.0000000e+0 0.0000000e+0
vn 0.0000000e+0 1.00000000 0.0000000e+0
vn 1.00000000 0.0000000e+0 0.0000000e+0
vn 0.0000000e+0 0.25890199 -0.96590360
vn 0.0000000e+0 1.00000000 0.0000000e+0
vn 0.0000000e+0 0.25890199 -0.96590360
vn -1.00000000 0.0000000e+0 0.0000000e+0
vn 0.0000000e+0 0.0000000e+0 -1.00000000
vn 1.00000000 0.0000000e+0 0.0000000e+0
vn 0.0000000e+0 1.00000000 0.0000000e+0
vn 0.0000000e+0 0.0000000e+0 -1.00000000
vn 1.00000000 0.0000000e+0 0.0000000e+0
vn 0.0000000e+0 -1.00000000 0.0000000e+0
vn 0.0000000e+0 0.0000000e+0 -1.00000000
vn 0.0000000e+0 -1.00000000 0.0000000e+0
vn -1.00000000 0.0000000e+0 0.0000000e+0
vn 0.0000000e+0 0.0000000e+0 -1.00000000
vn -1.00000000 0.0000000e+0 0.0000000e+0
vn 0.0000000e+0 1.00000000 0.0000000e+0
vn 1.00000000 0.0000000e+0 0.0000000e+0
vn 0.0000000e+0 1.00000000 0.0000000e+0
vn 0.0000000e+0 0.89429711 -0.44747367
vn 0.75600750 0.0000000e+0 -0.65456295
vn 0.0000000e+0 0.0000000e+0 -1.00000000
vn 0.0000000e+0 0.0000000e+0 -1.00000000
vn 0.0000000e+0 0.89429711 -0.44747367
vn 0.75600750 0.0000000e+0 -0.65456295
vn 1.00000000 0.0000000e+0 0.0000000e+0
vn 0.0000000e+0 -1.00000000 0.0000000e+0
vn 0.0000000e+0 -0.89429711 -0.44747367
vn 0.75600750 0.0000000e+0 -0.65456295
vn 0.0000000e+0 0.0000000e+0 -1.00000000
vn 0.0000000e+0 0.0000000e+0 -1.00000000
vn 0.0000000e+0 -0.89429711 -0.44747367
vn 0.75600750 0.0000000e+0 -0.65456295
vn 0.0000000e+0 -1.00000000 0.0000000e+0
vn -1.00000000 0.0000000e+0 0.0000000e+0
vn 0.0000000e+0 -0.89429711 -0.44747367
vn -0.75600750 0.0000000e+0 -0.65456295
vn 0.0000000e+0 0.0000000e+0 -1.00000000
vn 0.0000000e+0 0.0000000e+0 -1.00000000
vn 0.0000000e+0 -0.89429711 -0.44747367
vn -0.75600750 0.0000000e+0 -0.65456295
vn -1.00000000 0.0000000e+0 0.0000000e+0
vn 0.0000000e+0 1.00000000 0.0000000e+0
vn 0.0000000e+0 0.89429711 -0.44747367
vn -0.75600750 0.0000000e+0 -0.65456295
vn 0.0000000e+0 0.0000000e+0 -1.00000000
vn 0.0000000e+0 0.0000000e+0 -1.00000000
vn 0.0000000e+0 0.89429711 -0.44747367
vn -0.75600750 0.0000000e+0 -0.65456295
vn -0.70710678 -0.70710678 0.0000000e+0
vn 0.0000000e+0 -1.00000000 0.0000000e+0
vn -3.6792405e-2 -0.32250843 0.94585127
vn 0.0000000e+0 -1.00000000 0.0000000e+0
vn 0.70710678 -0.70710678 0.0000000e+0
vn 6.2541587e-2 -6.2541587e-2 0.99608087
vn -3.6792405e-2 -0.32250843 0.94585127
vn 0.70710678 -0.70710678 0.0000000e+0
vn 1.00000000 0.0000000e+0 0.0000000e+0
vn 0.0000000e+0 -0.52143944 0.85328829
vn 6.2541587e-2 -6.2541587e-2 0.99608087
vn -0.70710678 -0.70710678 0.0000000e+0
vn -1.00000000 0.0000000e+0 0.0000000e+0
vn -3.6792405e-2 -0.32250843 0.94585127
g cube4_copy8_default5
usemtl default5
s 1
f 1//2 4//14 3//10 2//6
f 3//12 24//88 30//112 6//25
f 5//18 8//31 7//27 6//23
f 5//19 28//103 26//96 4//16
f 7//28 33//122 32//119 10//40
f 9//33 31//115 34//126 2//4
f 11//42 17//66 16//64 13//50
f 14//54 15//61 18//70 12//47
f 14//56 33//124 13//52
f 19//72 23//83 25//91 20//75
f 28//106 30//114 29//110 27//102
s 2
f 1//1 12//45 11//41 8//30 5//17 4//13
f 3//9 9//35 2//5
f 6//24 30//111 28//104 5//20
f 7//26 10//38 6//22
f 10//39 32//118 31//116 9//36
f 16//62 17//65 18//68 15//59
f 20//74 21//77 22//80 19//71
f 24//90 26//98 25//94 23//86
f 33//125 14//57 32//120
s 3
f 4//15 26//95 24//87 3//11
f 6//21 10//37 9//34 3//8
f 8//32 11//44 13//51 33//123 7//29
f 12//46 18//69 17//67 11//43
f 13//49 16//63 15//60 14//53
f 22//82 29//108 23//84 19//73
f 26//97 28//105 27//101 25//93
f 31//117 32//121 14//58 34//128
s 4
f 2//7 34//127 14//55 12//48 1//3
f 21//79 27//100 29//107 22//81
f 23//85 29//109 30//113 24//89
s 5
f 20//76 25//92 27//99 21//78
o cube6_copy7
#8 vertices, 6 faces
v -0.28760690 2.72277844 -4.2300986e-2
v -0.32154451 2.75651207 -2.9307126e-2
v 0.32154451 2.75651207 -2.9307126e-2
v 0.28760690 2.72277844 -4.2300986e-2
v -0.35950862 2.79493447 -0.38049681
v -0.40193064 2.84394753 -0.36136894
v 0.40193064 2.84394753 -0.36136894
v 0.35950862 2.79493447 -0.38049681
vn 0.0000000e+0 -0.35944626 0.93316579
vn 0.0000000e+0 -0.97798836 -0.20865946
vn -0.73391795 -0.67921953 5.0266165e-3
vn 0.0000000e+0 -0.35944626 0.93316579
vn 0.0000000e+0 0.96703813 0.25463159
vn -0.73391795 -0.67921953 5.0266165e-3
vn 0.0000000e+0 -0.35944626 0.93316579
vn 0.73391795 -0.67921953 5.0266165e-3
vn 0.0000000e+0 0.96703813 0.25463159
vn 0.0000000e+0 -0.35944626 0.93316579
vn 0.73391795 -0.67921953 5.0266165e-3
vn 0.0000000e+0 -0.97798836 -0.20865946
vn 0.0000000e+0 -0.97798836 -0.20865946
vn 0.0000000e+0 0.36355604 -0.93157233
vn -0.73391795 -0.67921953 5.0266165e-3
vn 0.0000000e+0 0.96703813 0.25463159
vn 0.0000000e+0 0.36355604 -0.93157233
vn -0.73391795 -0.67921953 5.0266165e-3
vn 0.73391795 -0.67921953 5.0266165e-3
vn 0.0000000e+0 0.96703813 0.25463159
vn 0.0000000e+0 0.36355604 -0.93157233
vn 0.73391795 -0.67921953 5.0266165e-3
vn 0.0000000e+0 -0.97798836 -0.20865946
vn 0.0000000e+0 0.36355604 -0.93157233
g cube6_copy7_default
usemtl default
s 1
f 35//129 38//138 37//135 36//132
f 40//145 41//149 42//152 39//142
s 2
f 36//134 40//146 39//143 35//131
f 38//139 42//150 41//147 37//136
s 3
f 35//130 39//141 42//151 38//140
f 37//137 41//148 40//144 36//133
o cube6
#8 vertices, 6 faces
v -0.29133600 2.66544772 0.28092602
v -0.32571365 2.91857612 0.37388057
v 0.32571365 2.91857612 0.37388057
v 0.29133600 2.66544772 0.28092602
v -0.29133600 2.79493447 -0.28717595
v -0.32571365 3.06334230 -0.26125742
v 0.32571365 3.06334230 -0.26125742
v 0.29133600 2.79493447 -0.28717595
vn 0.0000000e+0 -0.34471491 0.93870743
vn 0.0000000e+0 -0.97499445 -0.22222923
vn -0.99184026 -0.12429902 -2.8331314e-2
vn 0.0000000e+0 -0.34471491 0.93870743
vn 0.0000000e+0 0.97499445 0.22222923
vn -0.99184026 -0.12429902 -2.8331314e-2
vn 0.0000000e+0 -0.34471491 0.93870743
vn 0.99184026 -0.12429902 -2.8331314e-2
vn 0.0000000e+0 0.97499445 0.22222923
vn 0.0000000e+0 -0.34471491 0.93870743
vn 0.99184026 -0.12429902 -2.8331314e-2
vn 0.0000000e+0 -0.97499445 -0.22222923
vn 0.0000000e+0 -0.97499445 -0.22222923
vn 0.0000000e+0 9.6116877e-2 -0.99537005
vn -0.99184026 -0.12429902 -2.8331314e-2
vn 0.0000000e+0 0.97499445 0.22222923
vn 0.0000000e+0 9.6116877e-2 -0.99537005
vn -0.99184026 -0.12429902 -2.8331314e-2
vn 0.99184026 -0.12429902 -2.8331314e-2
vn 0.0000000e+0 0.97499445 0.22222923
vn 0.0000000e+0 9.6116877e-2 -0.99537005
vn 0.99184026 -0.12429902 -2.8331314e-2
vn 0.0000000e+0 -0.97499445 -0.22222923
vn 0.0000000e+0 9.6116877e-2 -0.99537005
g cube6_default
usemtl default
s 1
f 43//153 46//162 45//159 44//156
f 48//169 49//173 50//176 47//166
s 2
f 44//158 48//170 47//167 43//155
f 46//163 50//174 49//171 45//160
s 3
f 43//154 47//165 50//175 46//164
f 45//161 49//172 48//168 44//157
o cube4
#24 vertices, 26 faces
v -0.19880000 2.79880000 0.25000000
v -0.19880000 2.40120000 0.25000000
v 0.19880000 2.40120000 0.25000000
v 0.19880000 2.79880000 0.25000000
v -0.25000000 2.40120000 0.19880000
v -0.25000000 2.79880000 0.19880000
v -0.25000000 2.79880000 -0.19880000
v -0.25000000 2.40120000 -0.19880000
v -0.19880000 2.85000000 0.19880000
v 0.19880000 2.85000000 0.19880000
v 0.19880000 2.85000000 -0.19880000
v -0.19880000 2.85000000 -0.19880000
v -0.19880000 2.40120000 -0.25000000
v -0.19880000 2.79880000 -0.25000000
v 0.19880000 2.79880000 -0.25000000
v 0.19880000 2.40120000 -0.25000000
v 0.25000000 2.79880000 0.19880000
v 0.25000000 2.40120000 0.19880000
v 0.25000000 2.40120000 -0.19880000
v 0.25000000 2.79880000 -0.19880000
v 0.19880000 2.35000000 0.19880000
v -0.19880000 2.35000000 0.19880000
v -0.19880000 2.35000000 -0.19880000
v 0.19880000 2.35000000 -0.19880000
vn 0.0000000e+0 0.0000000e+0 1.00000000
vn -0.57735027 0.57735027 0.57735027
vn -0.70710678 0.0000000e+0 0.70710678
vn 0.0000000e+0 0.70710678 0.70710678
vn 0.0000000e+0 0.0000000e+0 1.00000000
vn -0.70710678 0.0000000e+0 0.70710678
vn 0.0000000e+0 -0.70710678 0.70710678
vn -0.57735027 -0.57735027 0.57735027
vn 0.0000000e+0 0.0000000e+0 1.00000000
vn 0.57735027 -0.57735027 0.57735027
vn 0.0000000e+0 -0.70710678 0.70710678
vn 0.70710678 0.0000000e+0 0.70710678
vn 0.0000000e+0 0.0000000e+0 1.00000000
vn 0.57735027 0.57735027 0.57735027
vn 0.70710678 0.0000000e+0 0.70710678
vn 0.0000000e+0 0.70710678 0.70710678
vn -0.70710678 -0.70710678 0.0000000e+0
vn -0.70710678 0.0000000e+0 0.70710678
vn -0.57735027 -0.57735027 0.57735027
vn -1.00000000 0.0000000e+0 0.0000000e+0
vn -0.57735027 0.57735027 0.57735027
vn -0.70710678 0.0000000e+0 0.70710678
vn -0.70710678 0.70710678 0.0000000e+0
vn -1.00000000 0.0000000e+0 0.0000000e+0
vn -0.57735027 0.57735027 -0.57735027
vn -0.70710678 0.70710678 0.0000000e+0
vn -1.00000000 0.0000000e+0 0.0000000e+0
vn -0.70710678 0.0000000e+0 -0.70710678
vn -0.70710678 -0.70710678 0.0000000e+0
vn -0.57735027 -0.57735027 -0.57735027
vn -1.00000000 0.0000000e+0 0.0000000e+0
vn -0.70710678 0.0000000e+0 -0.70710678
vn -0.57735027 0.57735027 0.57735027
vn 0.0000000e+0 1.00000000 0.0000000e+0
vn 0.0000000e+0 0.70710678 0.70710678
vn -0.70710678 0.70710678 0.0000000e+0
vn 0.0000000e+0 1.00000000 0.0000000e+0
vn 0.57735027 0.57735027 0.57735027
vn 0.0000000e+0 0.70710678 0.70710678
vn 0.70710678 0.70710678 0.0000000e+0
vn 0.0000000e+0 1.00000000 0.0000000e+0
vn 0.57735027 0.57735027 -0.57735027
vn 0.70710678 0.70710678 0.0000000e+0
vn 0.0000000e+0 0.70710678 -0.70710678
vn 0.0000000e+0 1.00000000 0.0000000e+0
vn -0.57735027 0.57735027 -0.57735027
vn -0.70710678 0.70710678 0.0000000e+0
vn 0.0000000e+0 0.70710678 -0.70710678
vn 0.0000000e+0 -0.70710678 -0.70710678
vn -0.57735027 -0.57735027 -0.57735027
vn 0.0000000e+0 0.0000000e+0 -1.00000000
vn -0.70710678 0.0000000e+0 -0.70710678
vn -0.57735027 0.57735027 -0.57735027
vn 0.0000000e+0 0.0000000e+0 -1.00000000
vn 0.0000000e+0 0.70710678 -0.70710678
vn -0.70710678 0.0000000e+0 -0.70710678
vn 0.57735027 0.57735027 -0.57735027
vn 0.0000000e+0 0.0000000e+0 -1.00000000
vn 0.0000000e+0 0.70710678 -0.70710678
vn 0.70710678 0.0000000e+0 -0.70710678
vn 0.0000000e+0 -0.70710678 -0.70710678
vn 0.0000000e+0 0.0000000e+0 -1.00000000
vn 0.57735027 -0.57735027 -0.57735027
vn 0.70710678 0.0000000e+0 -0.70710678
vn 0.57735027 0.57735027 0.57735027
vn 1.00000000 0.0000000e+0 0.0000000e+0
vn 0.70710678 0.0000000e+0 0.70710678
vn 0.70710678 0.70710678 0.0000000e+0
vn 1.00000000 0.0000000e+0 0.0000000e+0
vn 0.57735027 -0.57735027 0.57735027
vn 0.70710678 0.0000000e+0 0.70710678
vn 0.70710678 -0.70710678 0.0000000e+0
vn 1.00000000 0.0000000e+0 0.0000000e+0
vn 0.57735027 -0.57735027 -0.57735027
vn 0.70710678 0.0000000e+0 -0.70710678
vn 0.70710678 -0.70710678 0.0000000e+0
vn 1.00000000 0.0000000e+0 0.0000000e+0
vn 0.57735027 0.57735027 -0.57735027
vn 0.70710678 0.70710678 0.0000000e+0
vn 0.70710678 0.0000000e+0 -0.70710678
vn 0.57735027 -0.57735027 0.57735027
vn 0.0000000e+0 -0.70710678 0.70710678
vn 0.0000000e+0 -1.00000000 0.0000000e+0
vn 0.70710678 -0.70710678 0.0000000e+0
vn -0.70710678 -0.70710678 0.0000000e+0
vn 0.0000000e+0 -0.70710678 0.70710678
vn -0.57735027 -0.57735027 0.57735027
vn 0.0000000e+0 -1.00000000 0.0000000e+0
vn -0.70710678 -0.70710678 0.0000000e+0
vn 0.0000000e+0 -0.70710678 -0.70710678
vn -0.57735027 -0.57735027 -0.57735027
vn 0.0000000e+0 -1.00000000 0.0000000e+0
vn 0.0000000e+0 -0.70710678 -0.70710678
vn 0.57735027 -0.57735027 -0.57735027
vn 0.0000000e+0 -1.00000000 0.0000000e+0
vn 0.70710678 -0.70710678 0.0000000e+0
g cube4_default5
usemtl default5
s 1
f 52//181 53//185 54//189 51//177
f 53//186 71//257 68//246
f 54//190 67//241 60//214
f 55//195 72//263 52//184
f 56//199 59//212 62//223 57//202
f 61//218 70//254 65//233
f 63//226 73//267 58//206
f 64//230 65//234 66//238 63//227
f 68//245 69//249 70//253 67//242
f 69//250 74//270 66//239
f 72//264 73//268 74//271 71//259
s 2
f 51//178 59//209 56//197
f 52//183 72//262 71//258 53//187
f 53//188 68//247 67//243 54//191
f 57//204 64//232 63//228 58//208
f 58//205 73//265 72//261 55//193
f 60//216 67//244 70//255 61//219
f 61//220 65//235 64//231 62//224
f 65//236 70//256 69//251 66//240
f 66//237 74//269 73//266 63//225
f 68//248 71//260 74//272 69//252
s 3
f 56//200 57//203 58//207 55//196
f 60//213 61//217 62//221 59//210
f 62//222 64//229 57//201
s 4
f 51//179 56//198 55//194 52//182
f 54//192 60//215 59//211 51//180
o cube9
#12 vertices, 10 faces
v -0.40800000 1.23466667 0.24622222
v 0.40800000 1.23466667 0.24622222
v -0.40800000 1.23466667 -0.24622222
v 0.40800000 1.23466667 -0.24622222
v -0.40800000 2.21600000 0.24622222
v 0.40800000 2.21600000 0.24622222
v -0.40800000 2.21600000 -0.24622222
v 0.40800000 2.21600000 -0.24622222
v -0.32977778 2.29422222 0.16800000
v 0.32977778 2.29422222 0.16800000
v 0.32977778 2.29422222 -0.16800000
v -0.32977778 2.29422222 -0.16800000
vn 0.0000000e+0 0.0000000e+0 1.00000000
vn -1.00000000 0.0000000e+0 0.0000000e+0
vn 0.0000000e+0 -1.00000000 0.0000000e+0
vn 0.0000000e+0 0.0000000e+0 1.00000000
vn 1.00000000 0.0000000e+0 0.0000000e+0
vn 0.0000000e+0 -1.00000000 0.0000000e+0
vn 0.0000000e+0 0.0000000e+0 -1.00000000
vn -1.00000000 0.0000000e+0 0.0000000e+0
vn 0.0000000e+0 -1.00000000 0.0000000e+0
vn 0.0000000e+0 0.0000000e+0 -1.00000000
vn 1.00000000 0.0000000e+0 0.0000000e+0
vn 0.0000000e+0 -1.00000000 0.0000000e+0
vn 0.0000000e+0 0.0000000e+0 1.00000000
vn -0.70710678 0.70710678 0.0000000e+0
vn -1.00000000 0.0000000e+0 0.0000000e+0
vn 0.0000000e+0 0.70710678 0.70710678
vn 0.0000000e+0 0.0000000e+0 1.00000000
vn 0.70710678 0.70710678 0.0000000e+0
vn 1.00000000 0.0000000e+0 0.0000000e+0
vn 0.0000000e+0 0.70710678 0.70710678
vn -0.70710678 0.70710678 0.0000000e+0
vn 0.0000000e+0 0.0000000e+0 -1.00000000
vn -1.00000000 0.0000000e+0 0.0000000e+0
vn 0.0000000e+0 0.70710678 -0.70710678
vn 0.70710678 0.70710678 0.0000000e+0
vn 0.0000000e+0 0.0000000e+0 -1.00000000
vn 1.00000000 0.0000000e+0 0.0000000e+0
vn 0.0000000e+0 0.70710678 -0.70710678
vn -0.70710678 0.70710678 0.0000000e+0
vn 0.0000000e+0 0.70710678 0.70710678
vn 0.0000000e+0 1.00000000 0.0000000e+0
vn 0.70710678 0.70710678 0.0000000e+0
vn 0.0000000e+0 0.70710678 0.70710678
vn 0.0000000e+0 1.00000000 0.0000000e+0
vn 0.70710678 0.70710678 0.0000000e+0
vn 0.0000000e+0 0.70710678 -0.70710678
vn 0.0000000e+0 1.00000000 0.0000000e+0
vn -0.70710678 0.70710678 0.0000000e+0
vn 0.0000000e+0 0.70710678 -0.70710678
vn 0.0000000e+0 1.00000000 0.0000000e+0
g cube9_default3
usemtl default3
s 1
f 76//276 80//289 79//285 75//273
f 77//279 81//294 82//298 78//282
f 84//306 85//309 86//312 83//303
s 2
f 75//274 79//287 81//295 77//280
f 78//283 82//299 80//291 76//277
f 80//292 84//305 83//302 79//288
f 81//296 86//311 85//308 82//300
s 3
f 75//275 77//281 78//284 76//278
f 79//286 83//301 86//310 81//293
f 82//297 85//307 84//304 80//290
o cube10
#8 vertices, 6 faces
v -0.37733333 0.0000000e+0 0.19422222
v -0.47733333 1.28177778 0.29422222
v 0.47733333 1.28177778 0.29422222
v 0.37733333 0.0000000e+0 0.19422222
v -0.37733333 0.0000000e+0 -0.19422222
v -0.47733333 1.28177778 -0.29422222
v 0.47733333 1.28177778 -0.29422222
v 0.37733333 0.0000000e+0 -0.19422222
vn 0.0000000e+0 -7.7780294e-2 0.99697052
vn -0.99697052 -7.7780294e-2 0.0000000e+0
vn 0.0000000e+0 -1.00000000 0.0000000e+0
vn 0.0000000e+0 -7.7780294e-2 0.99697052
vn -0.99697052 -7.7780294e-2 0.0000000e+0
vn 0.0000000e+0 1.00000000 0.0000000e+0
vn 0.0000000e+0 -7.7780294e-2 0.99697052
vn 0.99697052 -7.7780294e-2 0.0000000e+0
vn 0.0000000e+0 1.00000000 0.0000000e+0
vn 0.0000000e+0 -7.7780294e-2 0.99697052
vn 0.99697052 -7.7780294e-2 0.0000000e+0
vn 0.0000000e+0 -1.00000000 0.0000000e+0
vn 0.0000000e+0 -7.7780294e-2 -0.99697052
vn -0.99697052 -7.7780294e-2 0.0000000e+0
vn 0.0000000e+0 -1.00000000 0.0000000e+0
vn 0.0000000e+0 -7.7780294e-2 -0.99697052
vn -0.99697052 -7.7780294e-2 0.0000000e+0
vn 0.0000000e+0 1.00000000 0.0000000e+0
vn 0.0000000e+0 -7.7780294e-2 -0.99697052
vn 0.99697052 -7.7780294e-2 0.0000000e+0
vn 0.0000000e+0 1.00000000 0.0000000e+0
vn 0.0000000e+0 -7.7780294e-2 -0.99697052
vn 0.99697052 -7.7780294e-2 0.0000000e+0
vn 0.0000000e+0 -1.00000000 0.0000000e+0
g cube10_default2
usemtl default2
s 1
f 87//313 90//322 89//319 88//316
f 92//328 93//331 94//334 91//325
s 2
f 87//315 91//327 94//336 90//324
f 89//321 93//333 92//330 88//318
s 3
f 88//317 92//329 91//326 87//314
f 90//323 94//335 93//332 89//320
