# Exported from Wings 3D 1.4.1
mtllib Pump.mtl
o cylinder2_copy3
#24 vertices, 20 faces
v 1.88699840 5.06093824 0.40255488
v 1.78399840 5.06093824 0.58095611
v 1.57799840 5.06093824 0.58095611
v 1.47499840 5.06093824 0.40255488
v 1.57799840 5.06093824 0.22415365
v 1.78399840 5.06093824 0.22415365
v 1.88699840 3.06093824 0.40255488
v 1.78399840 3.06093824 0.58095611
v 1.57799840 3.06093824 0.58095611
v 1.47499840 3.06093824 0.40255488
v 1.57799840 3.06093824 0.22415365
v 1.78399840 3.06093824 0.22415365
v 2.18099840 5.45793824 0.58095611
v 2.18099840 5.35493824 0.40255488
v 2.18099840 5.45793824 0.22415365
v 2.18099840 5.66393824 0.22415365
v 2.18099840 5.76693824 0.40255488
v 2.18099840 5.66393824 0.58095611
v 4.04779136 5.45793824 0.58095611
v 4.04779136 5.35493824 0.40255488
v 4.04779136 5.45793824 0.22415365
v 4.04779136 5.66393824 0.22415365
v 4.04779136 5.76693824 0.40255488
v 4.04779136 5.66393824 0.58095611
vn 0.86602540 0.0000000e+0 -0.50000000
vn 0.86602540 0.0000000e+0 0.50000000
vn 0.65465367 -0.65465367 0.37796447
vn 0.65465367 -0.65465367 -0.37796447
vn 0.0000000e+0 0.0000000e+0 1.00000000
vn 0.86602540 0.0000000e+0 0.50000000
vn 0.65465367 -0.65465367 0.37796447
vn 0.0000000e+0 0.0000000e+0 1.00000000
vn -0.86602540 0.0000000e+0 0.50000000
vn 0.0000000e+0 0.0000000e+0 1.00000000
vn -0.65465367 0.65465367 0.37796447
vn 0.0000000e+0 0.0000000e+0 1.00000000
vn -0.86602540 0.0000000e+0 -0.50000000
vn -0.86602540 0.0000000e+0 0.50000000
vn -0.65465367 0.65465367 -0.37796447
vn -0.65465367 0.65465367 0.37796447
vn -5.3894322e-16 0.0000000e+0 -1.00000000
vn -0.86602540 0.0000000e+0 -0.50000000
vn -5.3894322e-16 5.3894322e-16 -1.00000000
vn -0.65465367 0.65465367 -0.37796447
vn 0.86602540 0.0000000e+0 -0.50000000
vn -5.3894322e-16 0.0000000e+0 -1.00000000
vn 0.65465367 -0.65465367 -0.37796447
vn -5.3894322e-16 5.3894322e-16 -1.00000000
vn 0.0000000e+0 -1.00000000 0.0000000e+0
vn 0.86602540 0.0000000e+0 -0.50000000
vn 0.86602540 0.0000000e+0 0.50000000
vn 0.0000000e+0 -1.00000000 0.0000000e+0
vn 0.0000000e+0 0.0000000e+0 1.00000000
vn 0.86602540 0.0000000e+0 0.50000000
vn 0.0000000e+0 -1.00000000 0.0000000e+0
vn -0.86602540 0.0000000e+0 0.50000000
vn 0.0000000e+0 0.0000000e+0 1.00000000
vn 0.0000000e+0 -1.00000000 0.0000000e+0
vn -0.86602540 0.0000000e+0 -0.50000000
vn -0.86602540 0.0000000e+0 0.50000000
vn 0.0000000e+0 -1.00000000 0.0000000e+0
vn -5.3894322e-16 0.0000000e+0 -1.00000000
vn -0.86602540 0.0000000e+0 -0.50000000
vn 0.0000000e+0 -1.00000000 0.0000000e+0
vn 0.86602540 0.0000000e+0 -0.50000000
vn -5.3894322e-16 0.0000000e+0 -1.00000000
vn 0.65465367 -0.65465367 0.37796447
vn 0.0000000e+0 0.0000000e+0 1.00000000
vn 0.0000000e+0 -0.86602540 0.50000000
vn 0.0000000e+0 0.0000000e+0 1.00000000
vn 0.65465367 -0.65465367 0.37796447
vn 0.65465367 -0.65465367 -0.37796447
vn 0.0000000e+0 -0.86602540 0.50000000
vn 0.0000000e+0 -0.86602540 -0.50000000
vn 0.65465367 -0.65465367 -0.37796447
vn -5.3894322e-16 5.3894322e-16 -1.00000000
vn 0.0000000e+0 -0.86602540 -0.50000000
vn 0.0000000e+0 5.3894322e-16 -1.00000000
vn -5.3894322e-16 5.3894322e-16 -1.00000000
vn -0.65465367 0.65465367 -0.37796447
vn 0.0000000e+0 5.3894322e-16 -1.00000000
vn 0.0000000e+0 0.86602540 -0.50000000
vn -0.65465367 0.65465367 -0.37796447
vn -0.65465367 0.65465367 0.37796447
vn 0.0000000e+0 0.86602540 -0.50000000
vn 0.0000000e+0 0.86602540 0.50000000
vn -0.65465367 0.65465367 0.37796447
vn 0.0000000e+0 0.0000000e+0 1.00000000
vn 0.0000000e+0 0.86602540 0.50000000
vn 0.0000000e+0 0.0000000e+0 1.00000000
vn 1.00000000 0.0000000e+0 0.0000000e+0
vn 0.0000000e+0 -0.86602540 0.50000000
vn 0.0000000e+0 0.0000000e+0 1.00000000
vn 1.00000000 0.0000000e+0 0.0000000e+0
vn 0.0000000e+0 -0.86602540 0.50000000
vn 0.0000000e+0 -0.86602540 -0.50000000
vn 1.00000000 0.0000000e+0 0.0000000e+0
vn 0.0000000e+0 -0.86602540 -0.50000000
vn 0.0000000e+0 5.3894322e-16 -1.00000000
vn 1.00000000 0.0000000e+0 0.0000000e+0
vn 0.0000000e+0 5.3894322e-16 -1.00000000
vn 0.0000000e+0 0.86602540 -0.50000000
vn 1.00000000 0.0000000e+0 0.0000000e+0
vn 0.0000000e+0 0.86602540 -0.50000000
vn 0.0000000e+0 0.86602540 0.50000000
vn 1.00000000 0.0000000e+0 0.0000000e+0
vn 0.0000000e+0 0.86602540 0.50000000
vn 0.0000000e+0 0.0000000e+0 1.00000000
g cylinder2_copy3_default
usemtl default
s 1
f 3//10 9//33 8//29 2//5
f 3//11 18//63 17//60 4//16
f 5//18 11//39 10//35 4//13
f 6//23 15//51 14//48 1//4
f 14//49 20//71 19//68 13//45
f 17//61 23//80 22//78 16//58
s 2
f 2//6 8//30 7//27 1//2
f 2//8 13//44 18//64 3//12
f 4//14 10//36 9//32 3//9
f 4//15 17//59 16//56 5//20
f 6//22 12//42 11//38 5//17
f 20//70 21//73 22//76 23//79 24//82 19//67
s 3
f 1//1 7//26 12//41 6//21
f 1//3 14//47 13//43 2//7
f 13//46 19//69 24//84 18//66
f 16//57 22//77 21//75 15//54
s 4
f 5//19 16//55 15//52 6//24
f 8//28 9//31 10//34 11//37 12//40 7//25
f 15//53 21//74 20//72 14//50
f 18//65 24//83 23//81 17//62
o cylinder2
#24 vertices, 20 faces
v 1.11285440 4.52124928 -0.41582592
v 1.00985440 4.52124928 -0.23742469
v 0.80385440 4.52124928 -0.23742469
v 0.70085440 4.52124928 -0.41582592
v 0.80385440 4.52124928 -0.59422715
v 1.00985440 4.52124928 -0.59422715
v 1.11285440 2.52124928 -0.41582592
v 1.00985440 2.52124928 -0.23742469
v 0.80385440 2.52124928 -0.23742469
v 0.70085440 2.52124928 -0.41582592
v 0.80385440 2.52124928 -0.59422715
v 1.00985440 2.52124928 -0.59422715
v 1.40685440 4.91824928 -0.23742469
v 1.40685440 4.81524928 -0.41582592
v 1.40685440 4.91824928 -0.59422715
v 1.40685440 5.12424928 -0.59422715
v 1.40685440 5.22724928 -0.41582592
v 1.40685440 5.12424928 -0.23742469
v 3.27364736 4.91824928 -0.23742469
v 3.27364736 4.81524928 -0.41582592
v 3.27364736 4.91824928 -0.59422715
v 3.27364736 5.12424928 -0.59422715
v 3.27364736 5.22724928 -0.41582592
v 3.27364736 5.12424928 -0.23742469
vn 0.86602540 0.0000000e+0 -0.50000000
vn 0.86602540 0.0000000e+0 0.50000000
vn 0.65465367 -0.65465367 0.37796447
vn 0.65465367 -0.65465367 -0.37796447
vn 1.3473580e-16 0.0000000e+0 1.00000000
vn 0.86602540 0.0000000e+0 0.50000000
vn 0.65465367 -0.65465367 0.37796447
vn 1.3473580e-16 -1.3473580e-16 1.00000000
vn -0.86602540 0.0000000e+0 0.50000000
vn 1.3473580e-16 0.0000000e+0 1.00000000
vn -0.65465367 0.65465367 0.37796447
vn 1.3473580e-16 -1.3473580e-16 1.00000000
vn -0.86602540 0.0000000e+0 -0.50000000
vn -0.86602540 0.0000000e+0 0.50000000
vn -0.65465367 0.65465367 -0.37796447
vn -0.65465367 0.65465367 0.37796447
vn -5.3894322e-16 0.0000000e+0 -1.00000000
vn -0.86602540 0.0000000e+0 -0.50000000
vn -5.3894322e-16 5.3894322e-16 -1.00000000
vn -0.65465367 0.65465367 -0.37796447
vn 0.86602540 0.0000000e+0 -0.50000000
vn -5.3894322e-16 0.0000000e+0 -1.00000000
vn 0.65465367 -0.65465367 -0.37796447
vn -5.3894322e-16 5.3894322e-16 -1.00000000
vn 0.0000000e+0 -1.00000000 0.0000000e+0
vn 0.86602540 0.0000000e+0 -0.50000000
vn 0.86602540 0.0000000e+0 0.50000000
vn 0.0000000e+0 -1.00000000 0.0000000e+0
vn 1.3473580e-16 0.0000000e+0 1.00000000
vn 0.86602540 0.0000000e+0 0.50000000
vn 0.0000000e+0 -1.00000000 0.0000000e+0
vn -0.86602540 0.0000000e+0 0.50000000
vn 1.3473580e-16 0.0000000e+0 1.00000000
vn 0.0000000e+0 -1.00000000 0.0000000e+0
vn -0.86602540 0.0000000e+0 -0.50000000
vn -0.86602540 0.0000000e+0 0.50000000
vn 0.0000000e+0 -1.00000000 0.0000000e+0
vn -5.3894322e-16 0.0000000e+0 -1.00000000
vn -0.86602540 0.0000000e+0 -0.50000000
vn 0.0000000e+0 -1.00000000 0.0000000e+0
vn 0.86602540 0.0000000e+0 -0.50000000
vn -5.3894322e-16 0.0000000e+0 -1.00000000
vn 0.65465367 -0.65465367 0.37796447
vn 1.3473580e-16 -1.3473580e-16 1.00000000
vn 0.0000000e+0 -0.86602540 0.50000000
vn 0.0000000e+0 -1.3473580e-16 1.00000000
vn 0.65465367 -0.65465367 0.37796447
vn 0.65465367 -0.65465367 -0.37796447
vn 0.0000000e+0 -0.86602540 0.50000000
vn 0.0000000e+0 -0.86602540 -0.50000000
vn 0.65465367 -0.65465367 -0.37796447
vn -5.3894322e-16 5.3894322e-16 -1.00000000
vn 0.0000000e+0 -0.86602540 -0.50000000
vn 0.0000000e+0 5.3894322e-16 -1.00000000
vn -5.3894322e-16 5.3894322e-16 -1.00000000
vn -0.65465367 0.65465367 -0.37796447
vn 0.0000000e+0 5.3894322e-16 -1.00000000
vn 0.0000000e+0 0.86602540 -0.50000000
vn -0.65465367 0.65465367 -0.37796447
vn -0.65465367 0.65465367 0.37796447
vn 0.0000000e+0 0.86602540 -0.50000000
vn 0.0000000e+0 0.86602540 0.50000000
vn -0.65465367 0.65465367 0.37796447
vn 1.3473580e-16 -1.3473580e-16 1.00000000
vn 0.0000000e+0 0.86602540 0.50000000
vn 0.0000000e+0 -1.3473580e-16 1.00000000
vn 1.00000000 0.0000000e+0 0.0000000e+0
vn 0.0000000e+0 -0.86602540 0.50000000
vn 0.0000000e+0 -1.3473580e-16 1.00000000
vn 1.00000000 0.0000000e+0 0.0000000e+0
vn 0.0000000e+0 -0.86602540 0.50000000
vn 0.0000000e+0 -0.86602540 -0.50000000
vn 1.00000000 0.0000000e+0 0.0000000e+0
vn 0.0000000e+0 -0.86602540 -0.50000000
vn 0.0000000e+0 5.3894322e-16 -1.00000000
vn 1.00000000 0.0000000e+0 0.0000000e+0
vn 0.0000000e+0 5.3894322e-16 -1.00000000
vn 0.0000000e+0 0.86602540 -0.50000000
vn 1.00000000 0.0000000e+0 0.0000000e+0
vn 0.0000000e+0 0.86602540 -0.50000000
vn 0.0000000e+0 0.86602540 0.50000000
vn 1.00000000 0.0000000e+0 0.0000000e+0
vn 0.0000000e+0 0.86602540 0.50000000
vn 0.0000000e+0 -1.3473580e-16 1.00000000
g cylinder2_default
usemtl default
s 1
f 27//94 33//117 32//113 26//89
f 27//95 42//147 41//144 28//100
f 29//102 35//123 34//119 28//97
f 30//107 39//135 38//132 25//88
f 38//133 44//155 43//152 37//129
f 41//145 47//164 46//162 40//142
s 2
f 26//90 32//114 31//111 25//86
f 26//92 37//128 42//148 27//96
f 28//98 34//120 33//116 27//93
f 28//99 41//143 40//140 29//104
f 30//106 36//126 35//122 29//101
f 44//154 45//157 46//160 47//163 48//166 43//151
s 3
f 25//85 31//110 36//125 30//105
f 25//87 38//131 37//127 26//91
f 37//130 43//153 48//168 42//150
f 40//141 46//161 45//159 39//138
s 4
f 29//103 40//139 39//136 30//108
f 32//112 33//115 34//118 35//121 36//124 31//109
f 39//137 45//158 44//156 38//134
f 42//149 48//167 47//165 41//146
o cube1
#22 vertices, 19 faces
v -1.00000000 0.0000000e+0 1.00000000
v -1.15317744 1.77636094 1.00000000
v 2.99950336 2.00000000 1.00000000
v 2.99950336 0.0000000e+0 1.00000000
v -1.00000000 0.0000000e+0 -1.00000000
v -1.15317744 1.77636094 -1.00000000
v 2.99950336 2.00000000 -1.00000000
v 2.99950336 0.0000000e+0 -1.00000000
v -0.50800000 2.00000000 -1.00000000
v -0.50800000 2.00000000 1.00000000
v -5.1531231e-2 3.55015569 -1.00000000
v -5.1531231e-2 3.55015569 1.00000000
v 2.99950336 3.55015569 1.00000000
v 2.99950336 3.55015569 -1.00000000
v 0.43870656 4.24558126 -1.00000000
v 0.43870656 4.24558126 1.00000000
v 2.99950336 4.24558126 1.00000000
v 2.99950336 4.24558126 -1.00000000
v -2.4108418e-2 3.39383839 0.85779498
v -2.4108418e-2 3.39383839 -0.85779498
v -0.40023868 2.11651011 -0.85779498
v -0.40023868 2.11651011 0.85779498
vn 0.0000000e+0 0.0000000e+0 1.00000000
vn 0.0000000e+0 -1.00000000 0.0000000e+0
vn -0.99630271 -8.5912212e-2 0.0000000e+0
vn 0.0000000e+0 0.0000000e+0 1.00000000
vn -0.99630271 -8.5912212e-2 0.0000000e+0
vn -0.32751386 0.94484637 0.0000000e+0
vn 0.0000000e+0 0.0000000e+0 1.00000000
vn 1.00000000 0.0000000e+0 0.0000000e+0
vn 0.0000000e+0 0.0000000e+0 1.00000000
vn 1.00000000 0.0000000e+0 0.0000000e+0
vn 0.0000000e+0 0.0000000e+0 1.00000000
vn 1.00000000 0.0000000e+0 0.0000000e+0
vn 0.0000000e+0 -1.00000000 0.0000000e+0
vn 0.0000000e+0 -1.00000000 0.0000000e+0
vn 0.0000000e+0 0.0000000e+0 -1.00000000
vn -0.99630271 -8.5912212e-2 0.0000000e+0
vn 0.0000000e+0 0.0000000e+0 -1.00000000
vn -0.99630271 -8.5912212e-2 0.0000000e+0
vn -0.32751386 0.94484637 0.0000000e+0
vn 1.00000000 0.0000000e+0 0.0000000e+0
vn 0.0000000e+0 0.0000000e+0 -1.00000000
vn 1.00000000 0.0000000e+0 0.0000000e+0
vn 0.0000000e+0 0.0000000e+0 -1.00000000
vn 1.00000000 0.0000000e+0 0.0000000e+0
vn 0.0000000e+0 -1.00000000 0.0000000e+0
vn 0.0000000e+0 0.0000000e+0 -1.00000000
vn 0.0000000e+0 0.0000000e+0 -1.00000000
vn -0.32751386 0.94484637 0.0000000e+0
vn 0.0000000e+0 0.0000000e+0 -1.00000000
vn -0.85954546 0.25310726 0.44398009
vn -0.73413252 0.67900621 0.0000000e+0
vn 0.0000000e+0 0.0000000e+0 1.00000000
vn -0.32751386 0.94484637 0.0000000e+0
vn 0.0000000e+0 0.0000000e+0 1.00000000
vn -0.73413252 0.67900621 0.0000000e+0
vn -0.85954546 0.25310726 -0.44398009
vn 0.0000000e+0 0.0000000e+0 -1.00000000
vn -0.81732809 0.57617254 0.0000000e+0
vn 0.0000000e+0 0.0000000e+0 -1.00000000
vn -0.98495839 -0.17279169 0.0000000e+0
vn -0.85954546 0.25310726 0.44398009
vn 0.0000000e+0 0.0000000e+0 1.00000000
vn -0.81732809 0.57617254 0.0000000e+0
vn 0.0000000e+0 0.0000000e+0 1.00000000
vn -0.98495839 -0.17279169 0.0000000e+0
vn -0.85954546 0.25310726 -0.44398009
vn 0.0000000e+0 0.0000000e+0 1.00000000
vn 1.00000000 0.0000000e+0 0.0000000e+0
vn 0.0000000e+0 0.0000000e+0 1.00000000
vn 1.00000000 0.0000000e+0 0.0000000e+0
vn 1.00000000 0.0000000e+0 0.0000000e+0
vn 0.0000000e+0 0.0000000e+0 -1.00000000
vn 1.00000000 0.0000000e+0 0.0000000e+0
vn 0.0000000e+0 0.0000000e+0 -1.00000000
vn 0.0000000e+0 1.00000000 0.0000000e+0
vn -0.81732809 0.57617254 0.0000000e+0
vn 0.0000000e+0 0.0000000e+0 -1.00000000
vn 0.0000000e+0 1.00000000 0.0000000e+0
vn -0.81732809 0.57617254 0.0000000e+0
vn 0.0000000e+0 0.0000000e+0 1.00000000
vn 0.0000000e+0 1.00000000 0.0000000e+0
vn 0.0000000e+0 0.0000000e+0 1.00000000
vn 1.00000000 0.0000000e+0 0.0000000e+0
vn 0.0000000e+0 1.00000000 0.0000000e+0
vn 1.00000000 0.0000000e+0 0.0000000e+0
vn 0.0000000e+0 0.0000000e+0 -1.00000000
vn -0.95927489 0.28247423 0.0000000e+0
vn -0.98495839 -0.17279169 0.0000000e+0
vn -0.85954546 0.25310726 -0.44398009
vn -0.95927489 0.28247423 0.0000000e+0
vn -0.98495839 -0.17279169 0.0000000e+0
vn -0.85954546 0.25310726 0.44398009
vn -0.95927489 0.28247423 0.0000000e+0
vn -0.85954546 0.25310726 0.44398009
vn -0.73413252 0.67900621 0.0000000e+0
vn -0.95927489 0.28247423 0.0000000e+0
vn -0.73413252 0.67900621 0.0000000e+0
vn -0.85954546 0.25310726 -0.44398009
g cube1_default
usemtl default
s 1
f 49//169 52//179 51//175 58//200 50//172
f 54//185 57//195 55//189 56//194 53//183
f 55//190 62//219 61//216 51//178
f 58//203 70//245 69//243 57//199
f 59//207 63//225 66//234 62//222
f 59//208 68//239 67//236 60//213
f 61//217 65//230 64//228 60//212
s 2
f 49//170 53//182 56//193 52//181
f 51//177 61//215 60//210 58//202
f 57//198 69//242 68//240 59//209
f 58//201 57//196 54//187 50//174
f 64//226 65//229 66//232 63//223
s 3
f 50//173 54//186 53//184 49//171
f 52//180 56//192 55//188 51//176
f 57//197 59//205 62//220 55//191
f 60//211 64//227 63//224 59//206
f 62//221 66//233 65//231 61//218
f 68//238 69//241 70//244 67//235
s 4
f 60//214 67//237 70//246 58//204
