# Exported from Wings 3D 1.4.1
mtllib ReloadStation.mtl
o cube1
#62 vertices, 57 faces
v -1.00000000 0.0000000e+0 1.00000000
v -1.15317744 1.77636094 1.00000000
v 0.21848320 2.05777099 1.00000000
v 0.21848320 0.0000000e+0 1.00000000
v -1.00000000 0.0000000e+0 -1.00000000
v -1.15317744 1.77636094 -1.00000000
v 0.21848320 2.05777099 -1.00000000
v 0.21848320 0.0000000e+0 -1.00000000
v -0.50800000 2.00000000 -1.00000000
v -0.50800000 2.00000000 1.00000000
v -5.1531231e-2 3.55015569 -1.00000000
v -5.1531231e-2 3.55015569 1.00000000
v 0.21848320 3.17904069 1.00000000
v 0.21848320 3.17904069 -1.00000000
v 1.1478403e-2 3.74791726 -1.00000000
v 1.1478403e-2 3.74791726 1.00000000
v 0.21848320 3.74791726 1.00000000
v 0.21848320 3.74791726 -1.00000000
v -2.4108418e-2 3.39383839 0.85779498
v -2.4108418e-2 3.39383839 -0.85779498
v -0.40023868 2.11651011 -0.85779498
v -0.40023868 2.11651011 0.85779498
v 3.00171520 3.17904069 1.00000000
v 3.00171520 3.17904069 -1.00000000
v 3.00171520 3.74791726 -1.00000000
v 3.00171520 3.74791726 1.00000000
v 3.00171520 2.05777099 1.00000000
v 3.00171520 0.0000000e+0 1.00000000
v 3.00171520 0.0000000e+0 -1.00000000
v 3.00171520 2.05777099 -1.00000000
v 0.37048320 2.05777099 -0.84800000
v 0.37048320 2.05777099 0.84800000
v 2.84971520 2.05777099 0.84800000
v 2.84971520 2.05777099 -0.84800000
v 0.37048320 0.76188157 -0.84800000
v 0.37048320 0.76188157 0.84800000
v 2.84971520 0.76188157 0.84800000
v 2.84971520 0.76188157 -0.84800000
v 2.84971520 3.39828175 -0.84800000
v 2.84971520 3.39828175 0.84800000
v 3.00171520 3.39828175 1.00000000
v 3.00171520 3.39828175 -1.00000000
v 3.17202606 2.99975331 0.44947156
v 3.17202606 2.99975331 -0.44947156
v 3.17202606 2.25844524 -0.44947156
v 3.17202606 2.25844524 0.44947156
v 3.02203982 2.99975331 0.44947156
v 2.84971520 3.12160522 0.57132347
v 3.02203982 2.99975331 -0.44947156
v 2.84971520 3.12160522 -0.57132347
v 3.02203982 2.25844524 -0.44947156
v 2.84971520 2.18094399 -0.60338495
v 3.02203982 2.25844524 0.44947156
v 2.84971520 2.18094399 0.60338495
v 2.84971520 2.05777099 -0.52888033
v 0.37048320 2.05777099 -0.52888033
v 0.37048320 0.76188157 -0.52888033
v 2.84971520 0.76188157 -0.52888033
v 0.37048320 2.05777099 0.52888033
v 2.84971520 2.05777099 0.52888033
v 2.84971520 0.76188157 0.52888033
v 0.37048320 0.76188157 0.52888033
vn 0.0000000e+0 0.0000000e+0 1.00000000
vn 0.0000000e+0 -1.00000000 0.0000000e+0
vn -0.99630271 -8.5912212e-2 0.0000000e+0
vn 0.0000000e+0 0.0000000e+0 1.00000000
vn -0.99630271 -8.5912212e-2 0.0000000e+0
vn -0.32751386 0.94484637 0.0000000e+0
vn 0.0000000e+0 0.0000000e+0 1.00000000
vn 0.0000000e+0 0.0000000e+0 1.00000000
vn 0.0000000e+0 0.0000000e+0 1.00000000
vn 1.00000000 0.0000000e+0 0.0000000e+0
vn 0.0000000e+0 1.00000000 0.0000000e+0
vn 0.0000000e+0 1.00000000 0.0000000e+0
vn 0.0000000e+0 0.0000000e+0 1.00000000
vn 0.0000000e+0 -1.00000000 0.0000000e+0
vn 0.0000000e+0 0.0000000e+0 1.00000000
vn 0.0000000e+0 -1.00000000 0.0000000e+0
vn 0.0000000e+0 -1.00000000 0.0000000e+0
vn 0.0000000e+0 0.0000000e+0 -1.00000000
vn -0.99630271 -8.5912212e-2 0.0000000e+0
vn 0.0000000e+0 0.0000000e+0 -1.00000000
vn -0.99630271 -8.5912212e-2 0.0000000e+0
vn -0.32751386 0.94484637 0.0000000e+0
vn 0.0000000e+0 0.0000000e+0 -1.00000000
vn 0.0000000e+0 0.0000000e+0 -1.00000000
vn 0.0000000e+0 0.0000000e+0 -1.00000000
vn 1.00000000 0.0000000e+0 0.0000000e+0
vn 0.0000000e+0 1.00000000 0.0000000e+0
vn 0.0000000e+0 1.00000000 0.0000000e+0
vn 0.0000000e+0 -1.00000000 0.0000000e+0
vn 0.0000000e+0 0.0000000e+0 -1.00000000
vn 0.0000000e+0 -1.00000000 0.0000000e+0
vn 0.0000000e+0 0.0000000e+0 -1.00000000
vn 0.0000000e+0 0.0000000e+0 -1.00000000
vn -0.32751386 0.94484637 0.0000000e+0
vn 0.0000000e+0 0.0000000e+0 -1.00000000
vn -0.85954546 0.25310726 0.44398009
vn -0.73413252 0.67900621 0.0000000e+0
vn 0.0000000e+0 0.0000000e+0 1.00000000
vn -0.32751386 0.94484637 0.0000000e+0
vn 0.0000000e+0 0.0000000e+0 1.00000000
vn -0.73413252 0.67900621 0.0000000e+0
vn -0.85954546 0.25310726 -0.44398009
vn 0.0000000e+0 0.0000000e+0 -1.00000000
vn -0.95280669 0.30357768 0.0000000e+0
vn 0.0000000e+0 0.0000000e+0 -1.00000000
vn -0.98495839 -0.17279169 0.0000000e+0
vn -0.85954546 0.25310726 0.44398009
vn 0.0000000e+0 0.0000000e+0 1.00000000
vn -0.95280669 0.30357768 0.0000000e+0
vn 0.0000000e+0 0.0000000e+0 1.00000000
vn -0.98495839 -0.17279169 0.0000000e+0
vn -0.85954546 0.25310726 -0.44398009
vn 0.0000000e+0 0.0000000e+0 1.00000000
vn 0.0000000e+0 0.0000000e+0 1.00000000
vn 0.0000000e+0 0.0000000e+0 1.00000000
vn 0.0000000e+0 -1.00000000 0.0000000e+0
vn 1.00000000 0.0000000e+0 0.0000000e+0
vn 0.0000000e+0 0.0000000e+0 -1.00000000
vn 0.0000000e+0 0.0000000e+0 -1.00000000
vn 0.0000000e+0 0.0000000e+0 -1.00000000
vn 0.0000000e+0 -1.00000000 0.0000000e+0
vn 1.00000000 0.0000000e+0 0.0000000e+0
vn 0.0000000e+0 1.00000000 0.0000000e+0
vn -0.95280669 0.30357768 0.0000000e+0
vn 0.0000000e+0 0.0000000e+0 -1.00000000
vn 0.0000000e+0 1.00000000 0.0000000e+0
vn -0.95280669 0.30357768 0.0000000e+0
vn 0.0000000e+0 0.0000000e+0 1.00000000
vn 0.0000000e+0 1.00000000 0.0000000e+0
vn 0.0000000e+0 0.0000000e+0 1.00000000
vn 0.0000000e+0 1.00000000 0.0000000e+0
vn 0.0000000e+0 0.0000000e+0 1.00000000
vn 0.0000000e+0 1.00000000 0.0000000e+0
vn 0.0000000e+0 0.0000000e+0 -1.00000000
vn 0.0000000e+0 0.0000000e+0 -1.00000000
vn 0.0000000e+0 1.00000000 0.0000000e+0
vn -0.95927489 0.28247423 0.0000000e+0
vn -0.98495839 -0.17279169 0.0000000e+0
vn -0.85954546 0.25310726 -0.44398009
vn -0.95927489 0.28247423 0.0000000e+0
vn -0.98495839 -0.17279169 0.0000000e+0
vn -0.85954546 0.25310726 0.44398009
vn -0.95927489 0.28247423 0.0000000e+0
vn -0.85954546 0.25310726 0.44398009
vn -0.73413252 0.67900621 0.0000000e+0
vn -0.95927489 0.28247423 0.0000000e+0
vn -0.73413252 0.67900621 0.0000000e+0
vn -0.85954546 0.25310726 -0.44398009
vn 1.00000000 0.0000000e+0 0.0000000e+0
vn 0.0000000e+0 0.0000000e+0 1.00000000
vn 0.0000000e+0 -1.00000000 0.0000000e+0
vn 1.00000000 0.0000000e+0 0.0000000e+0
vn 0.0000000e+0 0.0000000e+0 -1.00000000
vn 0.0000000e+0 -1.00000000 0.0000000e+0
vn 1.00000000 0.0000000e+0 0.0000000e+0
vn 0.0000000e+0 0.0000000e+0 -1.00000000
vn 0.0000000e+0 1.00000000 0.0000000e+0
vn 1.00000000 0.0000000e+0 0.0000000e+0
vn 0.0000000e+0 1.00000000 0.0000000e+0
vn 0.0000000e+0 0.0000000e+0 1.00000000
vn 1.00000000 0.0000000e+0 0.0000000e+0
vn 0.0000000e+0 0.0000000e+0 1.00000000
vn 0.0000000e+0 1.00000000 0.0000000e+0
vn -0.70710678 0.0000000e+0 0.70710678
vn 1.00000000 0.0000000e+0 0.0000000e+0
vn 0.0000000e+0 0.0000000e+0 1.00000000
vn 0.0000000e+0 -1.00000000 0.0000000e+0
vn 1.00000000 0.0000000e+0 0.0000000e+0
vn 0.0000000e+0 -1.00000000 0.0000000e+0
vn 0.0000000e+0 0.0000000e+0 -1.00000000
vn 1.00000000 0.0000000e+0 0.0000000e+0
vn 0.0000000e+0 0.0000000e+0 -1.00000000
vn 0.0000000e+0 1.00000000 0.0000000e+0
vn -0.70710678 0.0000000e+0 -0.70710678
vn 0.0000000e+0 1.00000000 0.0000000e+0
vn 0.0000000e+0 1.00000000 0.0000000e+0
vn 1.00000000 0.0000000e+0 0.0000000e+0
vn 0.0000000e+0 1.00000000 0.0000000e+0
vn -1.00000000 0.0000000e+0 0.0000000e+0
vn 0.0000000e+0 1.00000000 0.0000000e+0
vn 0.0000000e+0 1.00000000 0.0000000e+0
vn 1.00000000 0.0000000e+0 0.0000000e+0
vn 0.0000000e+0 1.00000000 0.0000000e+0
vn -1.00000000 0.0000000e+0 0.0000000e+0
vn 0.0000000e+0 1.00000000 0.0000000e+0
vn -1.00000000 0.0000000e+0 0.0000000e+0
vn -0.70710678 0.0000000e+0 0.70710678
vn -1.00000000 0.0000000e+0 0.0000000e+0
vn -1.00000000 0.0000000e+0 0.0000000e+0
vn 0.0000000e+0 1.00000000 0.0000000e+0
vn 1.00000000 0.0000000e+0 0.0000000e+0
vn 0.0000000e+0 1.00000000 0.0000000e+0
vn -1.00000000 0.0000000e+0 0.0000000e+0
vn -0.70710678 0.0000000e+0 -0.70710678
vn -1.00000000 0.0000000e+0 0.0000000e+0
vn -1.00000000 0.0000000e+0 0.0000000e+0
vn 0.0000000e+0 1.00000000 0.0000000e+0
vn 1.00000000 0.0000000e+0 0.0000000e+0
vn 0.0000000e+0 1.00000000 0.0000000e+0
vn 1.00000000 0.0000000e+0 0.0000000e+0
vn -1.00000000 0.0000000e+0 0.0000000e+0
vn 0.0000000e+0 -1.00000000 0.0000000e+0
vn 0.0000000e+0 1.00000000 0.0000000e+0
vn 1.00000000 0.0000000e+0 0.0000000e+0
vn 0.0000000e+0 -1.00000000 0.0000000e+0
vn -1.00000000 0.0000000e+0 0.0000000e+0
vn 0.0000000e+0 1.00000000 0.0000000e+0
vn -1.00000000 0.0000000e+0 0.0000000e+0
vn 1.00000000 0.0000000e+0 0.0000000e+0
vn 0.0000000e+0 -1.00000000 0.0000000e+0
vn 0.0000000e+0 1.00000000 0.0000000e+0
vn -1.00000000 0.0000000e+0 0.0000000e+0
vn 0.0000000e+0 -1.00000000 0.0000000e+0
vn 1.00000000 0.0000000e+0 0.0000000e+0
vn 0.0000000e+0 1.00000000 0.0000000e+0
vn -0.70710678 0.0000000e+0 -0.70710678
vn -1.00000000 0.0000000e+0 0.0000000e+0
vn -1.00000000 0.0000000e+0 0.0000000e+0
vn 0.0000000e+0 1.00000000 0.0000000e+0
vn -0.70710678 0.0000000e+0 0.70710678
vn -1.00000000 0.0000000e+0 0.0000000e+0
vn -1.00000000 0.0000000e+0 0.0000000e+0
vn 0.0000000e+0 1.00000000 0.0000000e+0
vn -0.70710678 0.0000000e+0 0.70710678
vn 0.0000000e+0 1.00000000 0.0000000e+0
vn -0.70710678 0.0000000e+0 -0.70710678
vn 0.0000000e+0 -1.00000000 0.0000000e+0
vn 0.0000000e+0 0.0000000e+0 -1.00000000
vn 0.0000000e+0 -1.00000000 0.0000000e+0
vn 0.0000000e+0 0.0000000e+0 1.00000000
vn 0.0000000e+0 0.0000000e+0 1.00000000
vn 0.0000000e+0 1.00000000 0.0000000e+0
vn 0.0000000e+0 1.00000000 0.0000000e+0
vn 0.0000000e+0 0.0000000e+0 -1.00000000
vn 0.0000000e+0 -1.00000000 0.0000000e+0
vn 0.0000000e+0 0.0000000e+0 -1.00000000
vn -0.57735027 -0.81649658 0.0000000e+0
vn -0.62585493 -1.4864404e-2 -0.77979783
vn -1.00000000 0.0000000e+0 0.0000000e+0
vn -1.00000000 0.0000000e+0 0.0000000e+0
vn -0.57735027 -0.81649658 0.0000000e+0
vn -0.62585493 -1.4864404e-2 -0.77979783
vn 0.0000000e+0 -1.00000000 0.0000000e+0
vn 0.0000000e+0 0.0000000e+0 1.00000000
vn -0.57735027 -0.81649658 0.0000000e+0
vn -0.62585493 -1.4864404e-2 0.77979783
vn -1.00000000 0.0000000e+0 0.0000000e+0
vn -1.00000000 0.0000000e+0 0.0000000e+0
vn -0.57735027 -0.81649658 0.0000000e+0
vn -0.62585493 -1.4864404e-2 0.77979783
vn 0.0000000e+0 0.0000000e+0 1.00000000
vn 0.0000000e+0 1.00000000 0.0000000e+0
vn -0.41016737 0.91201027 0.0000000e+0
vn -0.62585493 -1.4864404e-2 0.77979783
vn -1.00000000 0.0000000e+0 0.0000000e+0
vn -1.00000000 0.0000000e+0 0.0000000e+0
vn -0.41016737 0.91201027 0.0000000e+0
vn -0.62585493 -1.4864404e-2 0.77979783
vn 0.0000000e+0 1.00000000 0.0000000e+0
vn 0.0000000e+0 0.0000000e+0 -1.00000000
vn -0.41016737 0.91201027 0.0000000e+0
vn -0.62585493 -1.4864404e-2 -0.77979783
vn -1.00000000 0.0000000e+0 0.0000000e+0
vn -1.00000000 0.0000000e+0 0.0000000e+0
vn -0.41016737 0.91201027 0.0000000e+0
vn -0.62585493 -1.4864404e-2 -0.77979783
vn 0.0000000e+0 0.0000000e+0 1.00000000
vn 0.0000000e+0 1.00000000 0.0000000e+0
vn 1.00000000 0.0000000e+0 0.0000000e+0
vn 0.0000000e+0 0.0000000e+0 1.00000000
vn 0.0000000e+0 1.00000000 0.0000000e+0
vn -1.00000000 0.0000000e+0 0.0000000e+0
vn 0.0000000e+0 0.0000000e+0 1.00000000
vn -1.00000000 0.0000000e+0 0.0000000e+0
vn 0.0000000e+0 -1.00000000 0.0000000e+0
vn 0.0000000e+0 0.0000000e+0 1.00000000
vn 0.0000000e+0 -1.00000000 0.0000000e+0
vn 1.00000000 0.0000000e+0 0.0000000e+0
vn 0.0000000e+0 0.0000000e+0 -1.00000000
vn 0.0000000e+0 1.00000000 0.0000000e+0
vn -1.00000000 0.0000000e+0 0.0000000e+0
vn 0.0000000e+0 0.0000000e+0 -1.00000000
vn 0.0000000e+0 1.00000000 0.0000000e+0
vn 1.00000000 0.0000000e+0 0.0000000e+0
vn 0.0000000e+0 0.0000000e+0 -1.00000000
vn 1.00000000 0.0000000e+0 0.0000000e+0
vn 0.0000000e+0 -1.00000000 0.0000000e+0
vn 0.0000000e+0 0.0000000e+0 -1.00000000
vn 0.0000000e+0 -1.00000000 0.0000000e+0
vn -1.00000000 0.0000000e+0 0.0000000e+0
g cube1_default
usemtl default
s 1
f 3//10 7//26 14//62 13//57
f 4//15 28//106 27//102 3//9
f 6//20 9//33 7//23 8//30 5//18
f 9//36 21//84 20//82 11//47
f 12//52 19//79 22//88 10//42
f 16//66 17//69 18//73 15//63
f 24//92 25//95 26//98 23//89
f 27//104 41//164 40//160 33//127
f 31//118 56//211 55//208 34//137
f 32//122 36//144 35//140 31//117
f 33//128 54//203 52//196 34//136
f 33//130 60//223 59//220 32//123
f 34//134 39//156 42//166 30//114
f 36//145 62//229 61//227 37//150
f 38//153 58//217 57//215 35//142
f 39//157 50//187 48//179 40//161
f 47//178 53//202 54//206 48//182
f 50//190 52//198 51//194 49//186
s 2
f 2//5 6//21 5//19 1//3
f 3//8 13//53 12//48 10//40
f 3//11 32//120 31//115 7//27
f 8//31 29//109 28//107 4//16
f 9//35 11//43 14//58 7//24
f 12//49 16//67 15//64 11//44
f 17//71 26//99 25//97 18//76
f 20//80 21//83 22//86 19//77
f 23//91 13//56 14//61 24//94
f 32//124 59//221 62//230 36//146
f 34//135 52//195 50//188 39//158
f 34//138 55//209 58//218 38//154
f 35//141 57//214 56//212 31//119
f 36//143 37//147 38//151 35//139
f 37//149 61//226 60//224 33//131
f 40//159 41//163 42//165 39//155
f 40//162 48//180 54//204 33//129
f 44//170 49//184 51//191 45//171
f 46//174 53//200 47//176 43//168
f 48//181 50//189 49//185 47//177
f 52//197 54//205 53//201 51//193
s 3
f 1//2 5//17 8//29 4//14
f 7//25 30//112 29//110 8//32
f 10//39 9//34 6//22 2//6
f 11//46 20//81 19//78 12//51
f 13//55 23//90 26//100 17//72
f 18//75 25//96 24//93 14//60
f 27//103 33//125 32//121 3//12
f 34//133 38//152 37//148 33//126
f 43//167 47//175 49//183 44//169
f 45//172 51//192 53//199 46//173
f 56//210 57//213 58//216 55//207
f 60//222 61//225 62//228 59//219
s 4
f 1//1 4//13 3//7 10//38 2//4
f 7//28 31//116 34//132 30//113
f 10//41 22//87 21//85 9//37
f 11//45 15//65 18//74 14//59
f 13//54 17//70 16//68 12//50
f 28//105 29//108 30//111 27//101
