# Exported from Wings 3D 1.4.1
mtllib rocket.mtl
o cube3
#88 vertices, 82 faces
v -0.58400000 -0.30870979 -6.40184412
v -0.30870979 -0.58400000 -6.40184412
v -0.58400000 0.30870979 -6.40184412
v -0.30870979 0.58400000 -6.40184412
v 0.30870979 0.58400000 -6.40184412
v 0.58400000 0.30870979 -6.40184412
v 0.58400000 -0.30870979 -6.40184412
v 0.30870979 -0.58400000 -6.40184412
v -1.00000000 -0.52861266 3.14672343
v -0.52861266 -1.00000000 3.14672343
v -1.00000000 0.52861266 3.14672343
v -0.52861266 1.00000000 3.14672343
v 0.52861266 1.00000000 3.14672343
v 1.00000000 0.52861266 3.14672343
v 1.00000000 -0.52861266 3.14672343
v 0.52861266 -1.00000000 3.14672343
v -9.5435491e-2 -6.8588045e-2 6.40184412
v -6.8588045e-2 -9.5435491e-2 6.40184412
v 6.8588045e-2 -9.5435491e-2 6.40184412
v 9.5435491e-2 -6.8588045e-2 6.40184412
v 9.5435491e-2 6.8588045e-2 6.40184412
v 6.8588045e-2 9.5435491e-2 6.40184412
v -6.8588045e-2 9.5435491e-2 6.40184412
v -9.5435491e-2 6.8588045e-2 6.40184412
v 0.80000000 8.5635251e-2 -4.25436426
v 0.80000000 -8.5635251e-2 -4.25436426
v 0.80000000 -8.5635251e-2 -5.95886671
v 0.80000000 8.5635251e-2 -5.95886671
v 8.5635251e-2 -0.80000000 -4.25436426
v -8.5635251e-2 -0.80000000 -4.25436426
v -8.5635251e-2 -0.80000000 -5.95886671
v 8.5635251e-2 -0.80000000 -5.95886671
v -8.5635251e-2 0.80000000 -4.25436426
v 8.5635251e-2 0.80000000 -4.25436426
v 8.5635251e-2 0.80000000 -5.95886671
v -8.5635251e-2 0.80000000 -5.95886671
v -0.80000000 -8.5635251e-2 -4.25436426
v -0.80000000 8.5635251e-2 -4.25436426
v -0.80000000 8.5635251e-2 -5.95886671
v -0.80000000 -8.5635251e-2 -5.95886671
v -2.26733721 -8.5635251e-2 -5.87073861
v -2.26733721 8.5635251e-2 -5.87073861
v -2.26733721 8.5635251e-2 -7.57524106
v -2.26733721 -8.5635251e-2 -7.57524106
v -8.5635251e-2 2.26733721 -5.87073861
v 8.5635251e-2 2.26733721 -5.87073861
v 8.5635251e-2 2.26733721 -7.57524106
v -8.5635251e-2 2.26733721 -7.57524106
v 8.5635251e-2 -2.26733721 -5.87073861
v -8.5635251e-2 -2.26733721 -5.87073861
v -8.5635251e-2 -2.26733721 -7.57524106
v 8.5635251e-2 -2.26733721 -7.57524106
v 2.26733721 8.5635251e-2 -5.87073861
v 2.26733721 -8.5635251e-2 -5.87073861
v 2.26733721 -8.5635251e-2 -7.57524106
v 2.26733721 8.5635251e-2 -7.57524106
v -2.43354537 -8.5635251e-2 -5.87073861
v -2.43354537 8.5635251e-2 -5.87073861
v -2.43354537 8.5635251e-2 -7.57524106
v -2.43354537 -8.5635251e-2 -7.57524106
v -8.5635251e-2 2.43354537 -5.87073861
v 8.5635251e-2 2.43354537 -5.87073861
v 8.5635251e-2 2.43354537 -7.57524106
v -8.5635251e-2 2.43354537 -7.57524106
v 8.5635251e-2 -2.43354537 -5.87073861
v -8.5635251e-2 -2.43354537 -5.87073861
v -8.5635251e-2 -2.43354537 -7.57524106
v 8.5635251e-2 -2.43354537 -7.57524106
v 2.43354537 8.5635251e-2 -5.87073861
v 2.43354537 -8.5635251e-2 -5.87073861
v 2.43354537 -8.5635251e-2 -7.57524106
v 2.43354537 8.5635251e-2 -7.57524106
v 2.37670218 -2.7060739e-2 -5.11033628
v 2.37670218 2.7060739e-2 -5.11033628
v 2.32418040 2.7060739e-2 -5.11033628
v 2.32418040 -2.7060739e-2 -5.11033628
v -2.7060739e-2 -2.37670218 -5.11033628
v 2.7060739e-2 -2.37670218 -5.11033628
v 2.7060739e-2 -2.32418040 -5.11033628
v -2.7060739e-2 -2.32418040 -5.11033628
v 2.7060739e-2 2.37670218 -5.11033628
v -2.7060739e-2 2.37670218 -5.11033628
v -2.7060739e-2 2.32418040 -5.11033628
v 2.7060739e-2 2.32418040 -5.11033628
v -2.37670218 2.7060739e-2 -5.11033628
v -2.37670218 -2.7060739e-2 -5.11033628
v -2.32418040 -2.7060739e-2 -5.11033628
v -2.32418040 2.7060739e-2 -5.11033628
vn -3.6621245e-16 0.0000000e+0 -1.00000000
vn -0.70632406 -0.70632406 -4.7038835e-2
vn -0.89883763 0.0000000e+0 -0.43828178
vn -0.88809338 -0.45776074 -4.1776133e-2
vn -3.6621245e-16 0.0000000e+0 -1.00000000
vn -0.70632406 -0.70632406 -4.7038835e-2
vn -0.45776074 -0.88809338 -4.1776133e-2
vn 0.0000000e+0 -0.89883763 -0.43828178
vn -3.6621245e-16 0.0000000e+0 -1.00000000
vn -0.70632406 0.70632406 -4.7038835e-2
vn -0.88809338 0.45776074 -4.1776133e-2
vn -0.89883763 0.0000000e+0 -0.43828178
vn -3.6621245e-16 0.0000000e+0 -1.00000000
vn -0.70632406 0.70632406 -4.7038835e-2
vn 0.0000000e+0 0.89883763 -0.43828178
vn -0.45776074 0.88809338 -4.1776133e-2
vn -3.6621245e-16 0.0000000e+0 -1.00000000
vn 0.70632406 0.70632406 -4.7038835e-2
vn 0.45776074 0.88809338 -4.1776133e-2
vn 0.0000000e+0 0.89883763 -0.43828178
vn -3.6621245e-16 0.0000000e+0 -1.00000000
vn 0.70632406 0.70632406 -4.7038835e-2
vn 0.89883763 0.0000000e+0 -0.43828178
vn 0.88809338 0.45776074 -4.1776133e-2
vn -3.6621245e-16 0.0000000e+0 -1.00000000
vn 0.70632406 -0.70632406 -4.7038835e-2
vn 0.88809338 -0.45776074 -4.1776133e-2
vn 0.89883763 0.0000000e+0 -0.43828178
vn -3.6621245e-16 0.0000000e+0 -1.00000000
vn 0.70632406 -0.70632406 -4.7038835e-2
vn 0.0000000e+0 -0.89883763 -0.43828178
vn 0.45776074 -0.88809338 -4.1776133e-2
vn -0.70632406 -0.70632406 -4.7038835e-2
vn -0.96349010 0.0000000e+0 0.26774397
vn -0.67794825 -0.67794825 0.28420476
vn -0.99963508 0.0000000e+0 -2.7013194e-2
vn -0.88809338 -0.45776074 -4.1776133e-2
vn -0.70632406 -0.70632406 -4.7038835e-2
vn -0.67794825 -0.67794825 0.28420476
vn 0.0000000e+0 -0.96349010 0.26774397
vn 0.0000000e+0 -0.99963508 -2.7013194e-2
vn -0.45776074 -0.88809338 -4.1776133e-2
vn -0.70632406 0.70632406 -4.7038835e-2
vn -0.96349010 0.0000000e+0 0.26774397
vn -0.67794825 0.67794825 0.28420476
vn -0.99963508 0.0000000e+0 -2.7013194e-2
vn -0.88809338 0.45776074 -4.1776133e-2
vn -0.70632406 0.70632406 -4.7038835e-2
vn -0.67794825 0.67794825 0.28420476
vn 0.0000000e+0 0.96349010 0.26774397
vn 0.0000000e+0 0.99963508 -2.7013194e-2
vn -0.45776074 0.88809338 -4.1776133e-2
vn 0.70632406 0.70632406 -4.7038835e-2
vn 0.67794825 0.67794825 0.28420476
vn 0.0000000e+0 0.96349010 0.26774397
vn 0.0000000e+0 0.99963508 -2.7013194e-2
vn 0.45776074 0.88809338 -4.1776133e-2
vn 0.70632406 0.70632406 -4.7038835e-2
vn 0.67794825 0.67794825 0.28420476
vn 0.96349010 0.0000000e+0 0.26774397
vn 0.99963508 0.0000000e+0 -2.7013194e-2
vn 0.88809338 0.45776074 -4.1776133e-2
vn 0.70632406 -0.70632406 -4.7038835e-2
vn 0.67794825 -0.67794825 0.28420476
vn 0.96349010 0.0000000e+0 0.26774397
vn 0.99963508 0.0000000e+0 -2.7013194e-2
vn 0.88809338 -0.45776074 -4.1776133e-2
vn 0.70632406 -0.70632406 -4.7038835e-2
vn 0.67794825 -0.67794825 0.28420476
vn 0.0000000e+0 -0.96349010 0.26774397
vn 0.0000000e+0 -0.99963508 -2.7013194e-2
vn 0.45776074 -0.88809338 -4.1776133e-2
vn -7.9323944e-16 0.0000000e+0 1.00000000
vn -0.96349010 0.0000000e+0 0.26774397
vn -0.67794825 -0.67794825 0.28420476
vn -7.9323944e-16 0.0000000e+0 1.00000000
vn -0.67794825 -0.67794825 0.28420476
vn 0.0000000e+0 -0.96349010 0.26774397
vn -7.9323944e-16 0.0000000e+0 1.00000000
vn 0.67794825 -0.67794825 0.28420476
vn 0.0000000e+0 -0.96349010 0.26774397
vn -7.9323944e-16 0.0000000e+0 1.00000000
vn 0.67794825 -0.67794825 0.28420476
vn 0.96349010 0.0000000e+0 0.26774397
vn -7.9323944e-16 0.0000000e+0 1.00000000
vn 0.67794825 0.67794825 0.28420476
vn 0.96349010 0.0000000e+0 0.26774397
vn -7.9323944e-16 0.0000000e+0 1.00000000
vn 0.67794825 0.67794825 0.28420476
vn 0.0000000e+0 0.96349010 0.26774397
vn -7.9323944e-16 0.0000000e+0 1.00000000
vn -0.67794825 0.67794825 0.28420476
vn 0.0000000e+0 0.96349010 0.26774397
vn -7.9323944e-16 0.0000000e+0 1.00000000
vn -0.96349010 0.0000000e+0 0.26774397
vn -0.67794825 0.67794825 0.28420476
vn 0.99963508 0.0000000e+0 -2.7013194e-2
vn 0.88809338 0.45776074 -4.1776133e-2
vn 0.74041732 0.0000000e+0 0.67214745
vn 0.0000000e+0 1.00000000 0.0000000e+0
vn 0.99963508 0.0000000e+0 -2.7013194e-2
vn 0.88809338 -0.45776074 -4.1776133e-2
vn 0.74041732 0.0000000e+0 0.67214745
vn 0.0000000e+0 -1.00000000 0.0000000e+0
vn 0.88809338 -0.45776074 -4.1776133e-2
vn 0.89883763 0.0000000e+0 -0.43828178
vn 0.0000000e+0 -1.00000000 0.0000000e+0
vn -0.74041732 0.0000000e+0 -0.67214745
vn 0.89883763 0.0000000e+0 -0.43828178
vn 0.88809338 0.45776074 -4.1776133e-2
vn -0.74041732 0.0000000e+0 -0.67214745
vn 0.0000000e+0 1.00000000 0.0000000e+0
vn 0.0000000e+0 -0.99963508 -2.7013194e-2
vn 0.45776074 -0.88809338 -4.1776133e-2
vn 0.0000000e+0 -0.74041732 0.67214745
vn 1.00000000 0.0000000e+0 0.0000000e+0
vn 0.0000000e+0 -0.99963508 -2.7013194e-2
vn -0.45776074 -0.88809338 -4.1776133e-2
vn 0.0000000e+0 -0.74041732 0.67214745
vn -1.00000000 0.0000000e+0 0.0000000e+0
vn -0.45776074 -0.88809338 -4.1776133e-2
vn 0.0000000e+0 -0.89883763 -0.43828178
vn -1.00000000 0.0000000e+0 0.0000000e+0
vn 0.0000000e+0 0.74041732 -0.67214745
vn 0.0000000e+0 -0.89883763 -0.43828178
vn 0.45776074 -0.88809338 -4.1776133e-2
vn 0.0000000e+0 0.74041732 -0.67214745
vn 1.00000000 0.0000000e+0 0.0000000e+0
vn 0.0000000e+0 0.99963508 -2.7013194e-2
vn -0.45776074 0.88809338 -4.1776133e-2
vn 0.0000000e+0 0.74041732 0.67214745
vn -1.00000000 0.0000000e+0 0.0000000e+0
vn 0.0000000e+0 0.99963508 -2.7013194e-2
vn 0.45776074 0.88809338 -4.1776133e-2
vn 0.0000000e+0 0.74041732 0.67214745
vn 1.00000000 0.0000000e+0 0.0000000e+0
vn 0.45776074 0.88809338 -4.1776133e-2
vn 0.0000000e+0 0.89883763 -0.43828178
vn 1.00000000 0.0000000e+0 0.0000000e+0
vn 0.0000000e+0 -0.74041732 -0.67214745
vn 0.0000000e+0 0.89883763 -0.43828178
vn -0.45776074 0.88809338 -4.1776133e-2
vn 0.0000000e+0 -0.74041732 -0.67214745
vn -1.00000000 0.0000000e+0 0.0000000e+0
vn -0.99963508 0.0000000e+0 -2.7013194e-2
vn -0.88809338 -0.45776074 -4.1776133e-2
vn -0.74041732 0.0000000e+0 0.67214745
vn 0.0000000e+0 -1.00000000 0.0000000e+0
vn -0.99963508 0.0000000e+0 -2.7013194e-2
vn -0.88809338 0.45776074 -4.1776133e-2
vn -0.74041732 0.0000000e+0 0.67214745
vn 0.0000000e+0 1.00000000 0.0000000e+0
vn -0.88809338 0.45776074 -4.1776133e-2
vn -0.89883763 0.0000000e+0 -0.43828178
vn 0.0000000e+0 1.00000000 0.0000000e+0
vn 0.74041732 0.0000000e+0 -0.67214745
vn -0.89883763 0.0000000e+0 -0.43828178
vn -0.88809338 -0.45776074 -4.1776133e-2
vn 0.74041732 0.0000000e+0 -0.67214745
vn 0.0000000e+0 -1.00000000 0.0000000e+0
vn -0.74041732 0.0000000e+0 0.67214745
vn 0.0000000e+0 -1.00000000 0.0000000e+0
vn 0.0000000e+0 -1.00000000 0.0000000e+0
vn 0.0000000e+0 -0.99704626 7.6803417e-2
vn 0.99721757 0.0000000e+0 7.4546100e-2
vn -0.74041732 0.0000000e+0 0.67214745
vn 0.0000000e+0 1.00000000 0.0000000e+0
vn 0.0000000e+0 1.00000000 0.0000000e+0
vn 0.99721757 0.0000000e+0 7.4546100e-2
vn 0.0000000e+0 0.99704626 7.6803417e-2
vn 0.0000000e+0 1.00000000 0.0000000e+0
vn 0.74041732 0.0000000e+0 -0.67214745
vn 0.0000000e+0 1.00000000 0.0000000e+0
vn 0.0000000e+0 0.0000000e+0 -1.00000000
vn 0.74041732 0.0000000e+0 -0.67214745
vn 0.0000000e+0 -1.00000000 0.0000000e+0
vn 0.0000000e+0 0.0000000e+0 -1.00000000
vn 0.0000000e+0 -1.00000000 0.0000000e+0
vn 0.0000000e+0 0.74041732 0.67214745
vn -1.00000000 0.0000000e+0 0.0000000e+0
vn -1.00000000 0.0000000e+0 0.0000000e+0
vn -0.99704626 0.0000000e+0 7.6803417e-2
vn 0.0000000e+0 -0.99721757 7.4546100e-2
vn 0.0000000e+0 0.74041732 0.67214745
vn 1.00000000 0.0000000e+0 0.0000000e+0
vn 1.00000000 0.0000000e+0 0.0000000e+0
vn 0.0000000e+0 -0.99721757 7.4546100e-2
vn 0.99704626 0.0000000e+0 7.6803417e-2
vn 1.00000000 0.0000000e+0 0.0000000e+0
vn 0.0000000e+0 -0.74041732 -0.67214745
vn 1.00000000 0.0000000e+0 0.0000000e+0
vn 0.0000000e+0 0.0000000e+0 -1.00000000
vn 0.0000000e+0 -0.74041732 -0.67214745
vn -1.00000000 0.0000000e+0 0.0000000e+0
vn 0.0000000e+0 0.0000000e+0 -1.00000000
vn -1.00000000 0.0000000e+0 0.0000000e+0
vn 0.0000000e+0 -0.74041732 0.67214745
vn 1.00000000 0.0000000e+0 0.0000000e+0
vn 1.00000000 0.0000000e+0 0.0000000e+0
vn 0.99704626 0.0000000e+0 7.6803417e-2
vn 0.0000000e+0 0.99721757 7.4546100e-2
vn 0.0000000e+0 -0.74041732 0.67214745
vn -1.00000000 0.0000000e+0 0.0000000e+0
vn -1.00000000 0.0000000e+0 0.0000000e+0
vn 0.0000000e+0 0.99721757 7.4546100e-2
vn -0.99704626 0.0000000e+0 7.6803417e-2
vn -1.00000000 0.0000000e+0 0.0000000e+0
vn 0.0000000e+0 0.74041732 -0.67214745
vn -1.00000000 0.0000000e+0 0.0000000e+0
vn 0.0000000e+0 0.0000000e+0 -1.00000000
vn 0.0000000e+0 0.74041732 -0.67214745
vn 1.00000000 0.0000000e+0 0.0000000e+0
vn 0.0000000e+0 0.0000000e+0 -1.00000000
vn 1.00000000 0.0000000e+0 0.0000000e+0
vn 0.74041732 0.0000000e+0 0.67214745
vn 0.0000000e+0 1.00000000 0.0000000e+0
vn 0.0000000e+0 1.00000000 0.0000000e+0
vn 0.0000000e+0 0.99704626 7.6803417e-2
vn -0.99721757 0.0000000e+0 7.4546100e-2
vn 0.74041732 0.0000000e+0 0.67214745
vn 0.0000000e+0 -1.00000000 0.0000000e+0
vn 0.0000000e+0 -1.00000000 0.0000000e+0
vn -0.99721757 0.0000000e+0 7.4546100e-2
vn 0.0000000e+0 -0.99704626 7.6803417e-2
vn 0.0000000e+0 -1.00000000 0.0000000e+0
vn -0.74041732 0.0000000e+0 -0.67214745
vn 0.0000000e+0 -1.00000000 0.0000000e+0
vn 0.0000000e+0 0.0000000e+0 -1.00000000
vn -0.74041732 0.0000000e+0 -0.67214745
vn 0.0000000e+0 1.00000000 0.0000000e+0
vn 0.0000000e+0 0.0000000e+0 -1.00000000
vn 0.0000000e+0 1.00000000 0.0000000e+0
vn -1.00000000 0.0000000e+0 0.0000000e+0
vn 0.0000000e+0 -1.00000000 0.0000000e+0
vn -0.99721757 0.0000000e+0 7.4546100e-2
vn 0.0000000e+0 -0.99704626 7.6803417e-2
vn -1.00000000 0.0000000e+0 0.0000000e+0
vn 0.0000000e+0 1.00000000 0.0000000e+0
vn -0.99721757 0.0000000e+0 7.4546100e-2
vn 0.0000000e+0 0.99704626 7.6803417e-2
vn -1.00000000 0.0000000e+0 0.0000000e+0
vn 0.0000000e+0 1.00000000 0.0000000e+0
vn 0.0000000e+0 0.0000000e+0 -1.00000000
vn -1.00000000 0.0000000e+0 0.0000000e+0
vn 0.0000000e+0 0.0000000e+0 -1.00000000
vn 0.0000000e+0 -1.00000000 0.0000000e+0
vn 0.0000000e+0 1.00000000 0.0000000e+0
vn -1.00000000 0.0000000e+0 0.0000000e+0
vn 0.0000000e+0 0.99721757 7.4546100e-2
vn -0.99704626 0.0000000e+0 7.6803417e-2
vn 0.0000000e+0 1.00000000 0.0000000e+0
vn 1.00000000 0.0000000e+0 0.0000000e+0
vn 0.0000000e+0 0.99721757 7.4546100e-2
vn 0.99704626 0.0000000e+0 7.6803417e-2
vn 0.0000000e+0 1.00000000 0.0000000e+0
vn 1.00000000 0.0000000e+0 0.0000000e+0
vn 0.0000000e+0 0.0000000e+0 -1.00000000
vn 0.0000000e+0 1.00000000 0.0000000e+0
vn 0.0000000e+0 0.0000000e+0 -1.00000000
vn -1.00000000 0.0000000e+0 0.0000000e+0
vn 0.0000000e+0 -1.00000000 0.0000000e+0
vn 1.00000000 0.0000000e+0 0.0000000e+0
vn 0.0000000e+0 -0.99721757 7.4546100e-2
vn 0.99704626 0.0000000e+0 7.6803417e-2
vn 0.0000000e+0 -1.00000000 0.0000000e+0
vn -1.00000000 0.0000000e+0 0.0000000e+0
vn 0.0000000e+0 -0.99721757 7.4546100e-2
vn -0.99704626 0.0000000e+0 7.6803417e-2
vn 0.0000000e+0 -1.00000000 0.0000000e+0
vn -1.00000000 0.0000000e+0 0.0000000e+0
vn 0.0000000e+0 0.0000000e+0 -1.00000000
vn 0.0000000e+0 -1.00000000 0.0000000e+0
vn 0.0000000e+0 0.0000000e+0 -1.00000000
vn 1.00000000 0.0000000e+0 0.0000000e+0
vn 1.00000000 0.0000000e+0 0.0000000e+0
vn 0.0000000e+0 1.00000000 0.0000000e+0
vn 0.99721757 0.0000000e+0 7.4546100e-2
vn 0.0000000e+0 0.99704626 7.6803417e-2
vn 1.00000000 0.0000000e+0 0.0000000e+0
vn 0.0000000e+0 -1.00000000 0.0000000e+0
vn 0.99721757 0.0000000e+0 7.4546100e-2
vn 0.0000000e+0 -0.99704626 7.6803417e-2
vn 1.00000000 0.0000000e+0 0.0000000e+0
vn 0.0000000e+0 -1.00000000 0.0000000e+0
vn 0.0000000e+0 0.0000000e+0 -1.00000000
vn 1.00000000 0.0000000e+0 0.0000000e+0
vn 0.0000000e+0 0.0000000e+0 -1.00000000
vn 0.0000000e+0 1.00000000 0.0000000e+0
vn 0.0000000e+0 0.0000000e+0 1.00000000
vn 0.99721757 0.0000000e+0 7.4546100e-2
vn 0.0000000e+0 -0.99704626 7.6803417e-2
vn 0.0000000e+0 0.0000000e+0 1.00000000
vn 0.99721757 0.0000000e+0 7.4546100e-2
vn 0.0000000e+0 0.99704626 7.6803417e-2
vn 0.0000000e+0 0.0000000e+0 1.00000000
vn 0.0000000e+0 0.99704626 7.6803417e-2
vn -0.99721757 0.0000000e+0 7.4546100e-2
vn 0.0000000e+0 0.0000000e+0 1.00000000
vn -0.99721757 0.0000000e+0 7.4546100e-2
vn 0.0000000e+0 -0.99704626 7.6803417e-2
vn 0.0000000e+0 0.0000000e+0 1.00000000
vn 0.0000000e+0 -0.99721757 7.4546100e-2
vn -0.99704626 0.0000000e+0 7.6803417e-2
vn 0.0000000e+0 0.0000000e+0 1.00000000
vn 0.0000000e+0 -0.99721757 7.4546100e-2
vn 0.99704626 0.0000000e+0 7.6803417e-2
vn 0.0000000e+0 0.0000000e+0 1.00000000
vn 0.99704626 0.0000000e+0 7.6803417e-2
vn 0.0000000e+0 0.99721757 7.4546100e-2
vn 0.0000000e+0 0.0000000e+0 1.00000000
vn 0.0000000e+0 0.99721757 7.4546100e-2
vn -0.99704626 0.0000000e+0 7.6803417e-2
vn 0.0000000e+0 0.0000000e+0 1.00000000
vn 0.0000000e+0 0.99721757 7.4546100e-2
vn 0.99704626 0.0000000e+0 7.6803417e-2
vn 0.0000000e+0 0.0000000e+0 1.00000000
vn 0.0000000e+0 0.99721757 7.4546100e-2
vn -0.99704626 0.0000000e+0 7.6803417e-2
vn 0.0000000e+0 0.0000000e+0 1.00000000
vn -0.99704626 0.0000000e+0 7.6803417e-2
vn 0.0000000e+0 -0.99721757 7.4546100e-2
vn 0.0000000e+0 0.0000000e+0 1.00000000
vn 0.0000000e+0 -0.99721757 7.4546100e-2
vn 0.99704626 0.0000000e+0 7.6803417e-2
vn 0.0000000e+0 0.0000000e+0 1.00000000
vn -0.99721757 0.0000000e+0 7.4546100e-2
vn 0.0000000e+0 0.99704626 7.6803417e-2
vn 0.0000000e+0 0.0000000e+0 1.00000000
vn -0.99721757 0.0000000e+0 7.4546100e-2
vn 0.0000000e+0 -0.99704626 7.6803417e-2
vn 0.0000000e+0 0.0000000e+0 1.00000000
vn 0.0000000e+0 -0.99704626 7.6803417e-2
vn 0.99721757 0.0000000e+0 7.4546100e-2
vn 0.0000000e+0 0.0000000e+0 1.00000000
vn 0.99721757 0.0000000e+0 7.4546100e-2
vn 0.0000000e+0 0.99704626 7.6803417e-2
g cube3_default
usemtl default
s 1
f 2//7 31//121 30//118 10//42
f 4//15 36//141 35//138 5//20
f 5//18 13//53 14//58 6//22
f 6//23 28//109 27//106 7//28
f 9//37 37//146 40//158 1//4
f 11//43 12//48 4//14 3//10
f 16//72 29//114 32//126 8//32
f 17//74 24//95 11//44 9//34
f 19//81 18//78 10//40 16//70
f 21//87 20//84 15//65 14//60
f 23//93 22//90 13//55 12//50
f 25//100 53//216 56//230 28//112
f 27//107 55//225 54//221 26//104
f 32//127 52//211 51//208 31//124
f 35//139 47//189 46//185 34//136
f 38//151 42//166 41//161 37//147
f 40//159 44//175 43//172 39//156
f 45//181 61//248 64//260 48//196
f 46//187 84//323 83//321 45//183
f 49//199 65//262 68//274 52//214
f 50//205 80//311 79//309 49//201
f 51//209 67//270 66//266 50//204
f 53//218 75//296 74//294 69//278
f 56//231 72//287 71//285 55//228
f 58//237 59//241 60//244 57//233
f 61//249 82//317 81//314 62//253
f 65//263 78//305 77//302 66//267
f 70//282 73//291 76//300 54//224
f 86//328 87//331 88//334 85//325
s 2
f 3//11 39//153 38//150 11//47
f 5//19 35//137 34//134 13//57
f 7//26 15//63 16//68 8//30
f 8//31 32//125 31//122 2//8
f 10//38 9//33 1//2 2//6
f 10//41 30//117 29//113 16//71
f 12//52 33//130 36//142 4//16
f 14//62 25//98 28//110 6//24
f 18//76 19//79 20//82 21//85 22//88 23//91 24//94 17//73
f 28//111 56//229 55//226 27//108
f 29//116 49//198 52//212 32//128
f 31//123 51//207 50//203 30//120
f 34//135 46//184 45//179 33//131
f 36//143 48//193 47//190 35//140
f 41//163 57//234 60//246 44//178
f 42//169 88//335 87//333 41//165
f 43//173 59//242 58//238 42//168
f 45//182 83//320 82//318 61//250
f 47//191 63//256 62//252 46//186
f 52//213 68//273 67//271 51//210
f 53//217 69//276 72//288 56//232
f 54//223 76//299 75//297 53//219
f 55//227 71//284 70//280 54//222
f 57//235 86//329 85//326 58//239
f 69//277 74//293 73//290 70//281
f 78//304 79//307 80//310 77//301
s 3
f 3//9 4//13 5//17 6//21 7//25 8//29 2//5 1//1
f 7//27 27//105 26//102 15//67
f 9//35 10//39 18//77 17//75
f 11//46 38//149 37//145 9//36
f 12//49 11//45 24//96 23//92
f 13//56 34//133 33//129 12//51
f 14//59 13//54 22//89 21//86
f 16//69 15//64 20//83 19//80
f 26//103 54//220 53//215 25//99
f 30//119 50//202 49//197 29//115
f 33//132 45//180 48//194 36//144
f 37//148 41//162 44//176 40//160
f 39//155 43//171 42//167 38//152
f 41//164 87//332 86//330 57//236
f 44//177 60//245 59//243 43//174
f 48//195 64//259 63//257 47//192
f 49//200 79//308 78//306 65//264
f 58//240 85//327 88//336 42//170
f 66//265 67//269 68//272 65//261
f 66//268 77//303 80//312 50//206
f 70//279 71//283 72//286 69//275
f 74//292 75//295 76//298 73//289
f 82//316 83//319 84//322 81//313
s 4
f 1//3 40//157 39//154 3//12
f 15//66 26//101 25//97 14//61
f 62//251 63//255 64//258 61//247
f 62//254 81//315 84//324 46//188