# Exported from Wings 3D 1.4.1
mtllib Station.mtl
o cube1
#22 vertices, 19 faces
v -1.00000000 0.0000000e+0 1.00000000
v -1.15317744 1.77636094 1.00000000
v 1.00000000 2.00000000 1.00000000
v 1.00000000 0.0000000e+0 1.00000000
v -1.00000000 0.0000000e+0 -1.00000000
v -1.15317744 1.77636094 -1.00000000
v 1.00000000 2.00000000 -1.00000000
v 1.00000000 0.0000000e+0 -1.00000000
v -0.50800000 2.00000000 -1.00000000
v -0.50800000 2.00000000 1.00000000
v -5.1531231e-2 3.55015569 -1.00000000
v -5.1531231e-2 3.55015569 1.00000000
v 1.00000000 3.55015569 1.00000000
v 1.00000000 3.55015569 -1.00000000
v -0.38852160 4.24558126 -1.00000000
v -0.38852160 4.24558126 1.00000000
v 1.00000000 4.24558126 1.00000000
v 1.00000000 4.24558126 -1.00000000
v -2.4108418e-2 3.39383839 0.85779498
v -2.4108418e-2 3.39383839 -0.85779498
v -0.40023868 2.11651011 -0.85779498
v -0.40023868 2.11651011 0.85779498
vn 0.0000000e+0 0.0000000e+0 1.00000000
vn 0.0000000e+0 -1.00000000 0.0000000e+0
vn -0.99630271 -8.5912212e-2 0.0000000e+0
vn 0.0000000e+0 0.0000000e+0 1.00000000
vn -0.99630271 -8.5912212e-2 0.0000000e+0
vn -0.32751386 0.94484637 0.0000000e+0
vn 0.0000000e+0 0.0000000e+0 1.00000000
vn 1.00000000 0.0000000e+0 0.0000000e+0
vn 0.0000000e+0 0.0000000e+0 1.00000000
vn 1.00000000 0.0000000e+0 0.0000000e+0
vn 0.0000000e+0 0.0000000e+0 1.00000000
vn 1.00000000 0.0000000e+0 0.0000000e+0
vn 0.0000000e+0 -1.00000000 0.0000000e+0
vn 0.0000000e+0 -1.00000000 0.0000000e+0
vn 0.0000000e+0 0.0000000e+0 -1.00000000
vn -0.99630271 -8.5912212e-2 0.0000000e+0
vn 0.0000000e+0 0.0000000e+0 -1.00000000
vn -0.99630271 -8.5912212e-2 0.0000000e+0
vn -0.32751386 0.94484637 0.0000000e+0
vn 1.00000000 0.0000000e+0 0.0000000e+0
vn 0.0000000e+0 0.0000000e+0 -1.00000000
vn 1.00000000 0.0000000e+0 0.0000000e+0
vn 0.0000000e+0 0.0000000e+0 -1.00000000
vn 1.00000000 0.0000000e+0 0.0000000e+0
vn 0.0000000e+0 -1.00000000 0.0000000e+0
vn 0.0000000e+0 0.0000000e+0 -1.00000000
vn 0.0000000e+0 0.0000000e+0 -1.00000000
vn -0.32751386 0.94484637 0.0000000e+0
vn 0.0000000e+0 0.0000000e+0 -1.00000000
vn -0.85954546 0.25310726 0.44398009
vn -0.73413252 0.67900621 0.0000000e+0
vn 0.0000000e+0 0.0000000e+0 1.00000000
vn -0.32751386 0.94484637 0.0000000e+0
vn 0.0000000e+0 0.0000000e+0 1.00000000
vn -0.73413252 0.67900621 0.0000000e+0
vn -0.85954546 0.25310726 -0.44398009
vn 0.0000000e+0 0.0000000e+0 -1.00000000
vn -0.89990841 -0.43607896 0.0000000e+0
vn 0.0000000e+0 0.0000000e+0 -1.00000000
vn -0.98495839 -0.17279169 0.0000000e+0
vn -0.85954546 0.25310726 0.44398009
vn 0.0000000e+0 0.0000000e+0 1.00000000
vn -0.89990841 -0.43607896 0.0000000e+0
vn 0.0000000e+0 0.0000000e+0 1.00000000
vn -0.98495839 -0.17279169 0.0000000e+0
vn -0.85954546 0.25310726 -0.44398009
vn 0.0000000e+0 0.0000000e+0 1.00000000
vn 1.00000000 0.0000000e+0 0.0000000e+0
vn 0.0000000e+0 0.0000000e+0 1.00000000
vn 1.00000000 0.0000000e+0 0.0000000e+0
vn 1.00000000 0.0000000e+0 0.0000000e+0
vn 0.0000000e+0 0.0000000e+0 -1.00000000
vn 1.00000000 0.0000000e+0 0.0000000e+0
vn 0.0000000e+0 0.0000000e+0 -1.00000000
vn 0.0000000e+0 1.00000000 0.0000000e+0
vn -0.89990841 -0.43607896 0.0000000e+0
vn 0.0000000e+0 0.0000000e+0 -1.00000000
vn 0.0000000e+0 1.00000000 0.0000000e+0
vn -0.89990841 -0.43607896 0.0000000e+0
vn 0.0000000e+0 0.0000000e+0 1.00000000
vn 0.0000000e+0 1.00000000 0.0000000e+0
vn 0.0000000e+0 0.0000000e+0 1.00000000
vn 1.00000000 0.0000000e+0 0.0000000e+0
vn 0.0000000e+0 1.00000000 0.0000000e+0
vn 1.00000000 0.0000000e+0 0.0000000e+0
vn 0.0000000e+0 0.0000000e+0 -1.00000000
vn -0.95927489 0.28247423 0.0000000e+0
vn -0.98495839 -0.17279169 0.0000000e+0
vn -0.85954546 0.25310726 -0.44398009
vn -0.95927489 0.28247423 0.0000000e+0
vn -0.98495839 -0.17279169 0.0000000e+0
vn -0.85954546 0.25310726 0.44398009
vn -0.95927489 0.28247423 0.0000000e+0
vn -0.85954546 0.25310726 0.44398009
vn -0.73413252 0.67900621 0.0000000e+0
vn -0.95927489 0.28247423 0.0000000e+0
vn -0.73413252 0.67900621 0.0000000e+0
vn -0.85954546 0.25310726 -0.44398009
g cube1_default
usemtl default
s 1
f 1//1 4//11 3//7 10//32 2//4
f 6//17 9//27 7//21 8//26 5//15
f 7//22 14//51 13//48 3//10
f 10//35 22//77 21//75 9//31
f 11//39 15//57 18//66 14//54
f 11//40 20//71 19//68 12//45
f 13//49 17//62 16//60 12//44
s 2
f 1//2 5//14 8//25 4//13
f 3//9 13//47 12//42 10//34
f 9//30 21//74 20//72 11//41
f 10//33 9//28 6//19 2//6
f 16//58 17//61 18//64 15//55
s 3
f 2//5 6//18 5//16 1//3
f 4//12 8//24 7//20 3//8
f 9//29 11//37 14//52 7//23
f 12//43 16//59 15//56 11//38
f 14//53 18//65 17//63 13//50
f 20//70 21//73 22//76 19//67
s 4
f 12//46 19//69 22//78 10//36
