# Exported from Wings 3D 1.4.1
mtllib torpedo.mtl
o cylinder1
#80 vertices, 70 faces
v -5.02084949 0.41577879 0.41577879
v -5.02084949 -0.41577879 0.41577879
v -5.02084949 -0.41577879 -0.41577879
v -5.02084949 0.41577879 -0.41577879
v 3.97800000 1.00000000 0.0000000e+0
v 3.97800000 0.70710678 0.70710678
v 3.97800000 6.2450045e-17 1.00000000
v 3.97800000 -0.70710678 0.70710678
v 3.97800000 -1.00000000 1.2246468e-16
v 3.97800000 -0.70710678 -0.70710678
v 3.97800000 -1.8247931e-16 -1.00000000
v 3.97800000 0.70710678 -0.70710678
v 4.43554158 0.79400000 1.2377476e-17
v 4.43554158 0.56144278 0.56144278
v 4.43554158 3.7695092e-17 0.79400000
v 4.43554158 -0.56144278 0.56144278
v 4.43554158 -0.79400000 8.5332251e-17
v 4.43554158 -0.56144278 -0.56144278
v 4.43554158 -1.4534689e-16 -0.79400000
v 4.43554158 0.56144278 -0.56144278
v 4.73337525 0.33506800 3.9952331e-17
v 4.73337525 0.23692885 0.23692885
v 4.73337525 3.7695092e-17 0.33506800
v 4.73337525 -0.23692885 0.23692885
v 4.73337525 -0.33506800 2.6076872e-18
v 4.73337525 -0.23692885 -0.23692885
v 4.73337525 -1.1777203e-16 -0.33506800
v 4.73337525 0.23692885 -0.23692885
v 4.73337525 0.28599843 -0.11846443
v 4.73337525 0.11846443 -0.28599843
v 4.73337525 -0.11846443 -0.28599843
v 4.73337525 -0.28599843 -0.11846443
v 4.73337525 -0.28599843 0.11846443
v 4.73337525 -0.11846443 0.28599843
v 4.73337525 0.11846443 0.28599843
v 4.73337525 0.28599843 0.11846443
v -2.84886149 0.70710678 -0.70710678
v -2.84886149 -0.70710678 -0.70710678
v -2.84886149 -0.70710678 0.70710678
v -2.84886149 0.70710678 0.70710678
v -5.02084949 0.56549821 5.4324117e-2
v -5.02084949 0.56549821 -5.4324117e-2
v -5.02084949 -5.4324117e-2 0.56549821
v -5.02084949 5.4324117e-2 0.56549821
v -5.02084949 -0.56549821 -5.4324117e-2
v -5.02084949 -0.56549821 5.4324117e-2
v -5.02084949 5.4324117e-2 -0.56549821
v -5.02084949 -5.4324117e-2 -0.56549821
v -2.84886149 9.2387953e-2 -0.96173166
v -2.74886149 -9.4986767e-17 -1.00000000
v -2.84886149 -9.2387953e-2 -0.96173166
v -2.84886149 -0.96173166 -9.2387953e-2
v -2.74886149 -1.00000000 1.2246468e-16
v -2.84886149 -0.96173166 9.2387953e-2
v -2.84886149 -9.2387953e-2 0.96173166
v -2.74886149 1.4994259e-16 1.00000000
v -2.84886149 9.2387953e-2 0.96173166
v -2.84886149 0.96173166 9.2387953e-2
v -2.74886149 1.00000000 0.0000000e+0
v -2.84886149 0.96173166 -9.2387953e-2
v -3.39577183 -5.0813374e-2 2.04644999
v -3.39577183 5.0813374e-2 2.04644999
v -3.34147266 1.5366148e-16 2.02798199
v -4.47980328 5.0813374e-2 2.04644999
v -4.47980328 -5.0813374e-2 2.04644999
v -3.39577183 2.04644999 5.0813374e-2
v -3.39577183 2.04644999 -5.0813374e-2
v -4.47980328 2.04644999 -5.0813374e-2
v -4.47980328 2.04644999 5.0813374e-2
v -3.34147266 2.02798199 0.0000000e+0
v -3.39577183 5.0813374e-2 -2.04644999
v -3.39577183 -5.0813374e-2 -2.04644999
v -4.47980328 -5.0813374e-2 -2.04644999
v -4.47980328 5.0813374e-2 -2.04644999
v -3.34147266 -8.4716745e-17 -2.02798199
v -3.39577183 -2.04644999 -5.0813374e-2
v -3.39577183 -2.04644999 5.0813374e-2
v -4.47980328 -2.04644999 5.0813374e-2
v -4.47980328 -2.04644999 -5.0813374e-2
v -3.34147266 -2.02798199 1.1981361e-16
vn -1.00000000 -1.1410049e-16 0.0000000e+0
vn -0.17261814 0.37693890 0.91001101
vn -0.17261814 0.91001101 0.37693890
vn -1.00000000 -1.1410049e-16 0.0000000e+0
vn -0.17261814 -0.91001101 0.37693890
vn -0.17261814 -0.37693890 0.91001101
vn -1.00000000 -1.1410049e-16 0.0000000e+0
vn -0.17261814 -0.37693890 -0.91001101
vn -0.17261814 -0.91001101 -0.37693890
vn -1.00000000 -1.1410049e-16 0.0000000e+0
vn -0.17261814 0.91001101 -0.37693890
vn -0.17261814 0.37693890 -0.91001101
vn 0.38405969 0.85302561 0.35333478
vn 0.38405969 0.85302561 -0.35333478
vn 4.3334410e-16 0.92387953 -0.38268343
vn 4.3068555e-16 0.92387953 0.38268343
vn 0.38405969 0.85302561 0.35333478
vn 0.38405969 0.35333478 0.85302561
vn 4.2536844e-16 0.38268343 0.92387953
vn 4.3068555e-16 0.92387953 0.38268343
vn 0.38405969 0.35333478 0.85302561
vn 0.38405969 -0.35333478 0.85302561
vn 4.0410002e-16 -0.38268343 0.92387953
vn 4.2536844e-16 0.38268343 0.92387953
vn 0.38405969 -0.35333478 0.85302561
vn 0.38405969 -0.85302561 0.35333478
vn 4.0675857e-16 -0.92387953 0.38268343
vn 4.0410002e-16 -0.38268343 0.92387953
vn 0.38405969 -0.85302561 0.35333478
vn 0.38405969 -0.85302561 -0.35333478
vn 4.0144147e-16 -0.92387953 -0.38268343
vn 4.0675857e-16 -0.92387953 0.38268343
vn 0.38405969 -0.85302561 -0.35333478
vn 0.38405969 -0.35333478 -0.85302561
vn 4.0410002e-16 -0.38268343 -0.92387953
vn 4.0144147e-16 -0.92387953 -0.38268343
vn 0.38405969 -0.35333478 -0.85302561
vn 0.38405969 0.35333478 -0.85302561
vn 4.2536844e-16 0.38268343 -0.92387953
vn 4.0410002e-16 -0.38268343 -0.92387953
vn 0.38405969 0.35333478 -0.85302561
vn 0.38405969 0.85302561 -0.35333478
vn 4.3334410e-16 0.92387953 -0.38268343
vn 4.2536844e-16 0.38268343 -0.92387953
vn 0.38405969 0.85302561 0.35333478
vn 0.38405969 0.85302561 -0.35333478
vn 0.81829226 0.53104815 0.21996735
vn 0.81829226 0.53104815 -0.21996735
vn 0.38405969 0.85302561 0.35333478
vn 0.38405969 0.35333478 0.85302561
vn 0.81829226 0.53104815 0.21996735
vn 0.81829226 0.21996735 0.53104815
vn 0.38405969 0.35333478 0.85302561
vn 0.38405969 -0.35333478 0.85302561
vn 0.81829226 0.21996735 0.53104815
vn 0.81829226 -0.21996735 0.53104815
vn 0.38405969 -0.35333478 0.85302561
vn 0.38405969 -0.85302561 0.35333478
vn 0.81829226 -0.21996735 0.53104815
vn 0.81829226 -0.53104815 0.21996735
vn 0.38405969 -0.85302561 0.35333478
vn 0.38405969 -0.85302561 -0.35333478
vn 0.81829226 -0.53104815 0.21996735
vn 0.81829226 -0.53104815 -0.21996735
vn 0.38405969 -0.85302561 -0.35333478
vn 0.38405969 -0.35333478 -0.85302561
vn 0.81829226 -0.53104815 -0.21996735
vn 0.81829226 -0.21996735 -0.53104815
vn 0.38405969 -0.35333478 -0.85302561
vn 0.38405969 0.35333478 -0.85302561
vn 0.81829226 -0.21996735 -0.53104815
vn 0.81829226 0.21996735 -0.53104815
vn 0.38405969 0.35333478 -0.85302561
vn 0.38405969 0.85302561 -0.35333478
vn 0.81829226 0.21996735 -0.53104815
vn 0.81829226 0.53104815 -0.21996735
vn 0.81829226 0.53104815 0.21996735
vn 0.81829226 0.53104815 -0.21996735
vn 1.00000000 0.0000000e+0 0.0000000e+0
vn 0.81829226 0.53104815 0.21996735
vn 0.81829226 0.21996735 0.53104815
vn 1.00000000 1.9098972e-14 0.0000000e+0
vn 0.81829226 0.21996735 0.53104815
vn 0.81829226 -0.21996735 0.53104815
vn 1.00000000 0.0000000e+0 0.0000000e+0
vn 0.81829226 -0.21996735 0.53104815
vn 0.81829226 -0.53104815 0.21996735
vn 1.00000000 -4.7747430e-15 0.0000000e+0
vn 0.81829226 -0.53104815 0.21996735
vn 0.81829226 -0.53104815 -0.21996735
vn 1.00000000 1.9098972e-14 0.0000000e+0
vn 0.81829226 -0.53104815 -0.21996735
vn 0.81829226 -0.21996735 -0.53104815
vn 1.00000000 0.0000000e+0 0.0000000e+0
vn 0.81829226 -0.21996735 -0.53104815
vn 0.81829226 0.21996735 -0.53104815
vn 1.00000000 0.0000000e+0 0.0000000e+0
vn 0.81829226 0.21996735 -0.53104815
vn 0.81829226 0.53104815 -0.21996735
vn 1.00000000 -1.9098972e-14 0.0000000e+0
vn 1.00000000 0.0000000e+0 0.0000000e+0
vn 0.81829226 0.53104815 -0.21996735
vn 1.00000000 0.0000000e+0 0.0000000e+0
vn 1.00000000 -1.9098972e-14 0.0000000e+0
vn 1.00000000 0.0000000e+0 0.0000000e+0
vn 0.81829226 0.21996735 -0.53104815
vn 1.00000000 -1.9098972e-14 0.0000000e+0
vn 1.00000000 0.0000000e+0 0.0000000e+0
vn 1.00000000 0.0000000e+0 0.0000000e+0
vn 0.81829226 -0.21996735 -0.53104815
vn 1.00000000 0.0000000e+0 0.0000000e+0
vn 1.00000000 0.0000000e+0 0.0000000e+0
vn 1.00000000 0.0000000e+0 0.0000000e+0
vn 0.81829226 -0.53104815 -0.21996735
vn 1.00000000 0.0000000e+0 0.0000000e+0
vn 1.00000000 1.9098972e-14 0.0000000e+0
vn 1.00000000 0.0000000e+0 0.0000000e+0
vn 0.81829226 -0.53104815 0.21996735
vn 1.00000000 1.9098972e-14 0.0000000e+0
vn 1.00000000 -4.7747430e-15 0.0000000e+0
vn 1.00000000 0.0000000e+0 0.0000000e+0
vn 0.81829226 -0.21996735 0.53104815
vn 1.00000000 -4.7747430e-15 0.0000000e+0
vn 1.00000000 0.0000000e+0 0.0000000e+0
vn 1.00000000 0.0000000e+0 0.0000000e+0
vn 0.81829226 0.21996735 0.53104815
vn 1.00000000 0.0000000e+0 0.0000000e+0
vn 1.00000000 1.9098972e-14 0.0000000e+0
vn 1.00000000 0.0000000e+0 0.0000000e+0
vn 0.81829226 0.53104815 0.21996735
vn 1.00000000 0.0000000e+0 0.0000000e+0
vn 1.00000000 1.9098972e-14 0.0000000e+0
vn -0.17261814 0.91001101 -0.37693890
vn -0.17261814 0.37693890 -0.91001101
vn 4.3334410e-16 0.92387953 -0.38268343
vn 4.2536844e-16 0.38268343 -0.92387953
vn -0.17261814 -0.37693890 -0.91001101
vn -0.17261814 -0.91001101 -0.37693890
vn 4.0410002e-16 -0.38268343 -0.92387953
vn 4.0144147e-16 -0.92387953 -0.38268343
vn -0.17261814 -0.91001101 0.37693890
vn -0.17261814 -0.37693890 0.91001101
vn 4.0675857e-16 -0.92387953 0.38268343
vn 4.0410002e-16 -0.38268343 0.92387953
vn -0.17261814 0.37693890 0.91001101
vn -0.17261814 0.91001101 0.37693890
vn 4.2536844e-16 0.38268343 0.92387953
vn 4.3068555e-16 0.92387953 0.38268343
vn -1.00000000 -1.1410049e-16 0.0000000e+0
vn -0.17261814 0.91001101 0.37693890
vn -0.93927939 0.34315335 0.0000000e+0
vn -1.3821453e-2 1.7536561e-2 0.99975069
vn -1.00000000 -1.1410049e-16 0.0000000e+0
vn -0.17261814 0.91001101 -0.37693890
vn -1.3821453e-2 1.7536561e-2 -0.99975069
vn -0.93927939 0.34315335 0.0000000e+0
vn -1.00000000 -1.1410049e-16 0.0000000e+0
vn -0.17261814 -0.37693890 0.91001101
vn -0.93927939 0.0000000e+0 0.34315335
vn -1.3821453e-2 -0.99975069 1.7536561e-2
vn -1.00000000 -1.1410049e-16 0.0000000e+0
vn -0.17261814 0.37693890 0.91001101
vn -1.3821453e-2 0.99975069 1.7536561e-2
vn -0.93927939 0.0000000e+0 0.34315335
vn -1.00000000 -1.1410049e-16 0.0000000e+0
vn -0.17261814 -0.91001101 -0.37693890
vn -0.93927939 -0.34315335 0.0000000e+0
vn -1.3821453e-2 -1.7536561e-2 -0.99975069
vn -1.00000000 -1.1410049e-16 0.0000000e+0
vn -0.17261814 -0.91001101 0.37693890
vn -1.3821453e-2 -1.7536561e-2 0.99975069
vn -0.93927939 -0.34315335 0.0000000e+0
vn -1.00000000 -1.1410049e-16 0.0000000e+0
vn -0.17261814 0.37693890 -0.91001101
vn -0.93927939 0.0000000e+0 -0.34315335
vn -1.3821453e-2 0.99975069 -1.7536561e-2
vn -1.00000000 -1.1410049e-16 0.0000000e+0
vn -0.17261814 -0.37693890 -0.91001101
vn -1.3821453e-2 -0.99975069 -1.7536561e-2
vn -0.93927939 0.0000000e+0 -0.34315335
vn -0.17261814 0.37693890 -0.91001101
vn 4.2536844e-16 0.38268343 -0.92387953
vn -1.3821453e-2 0.99975069 -1.7536561e-2
vn 0.61423851 0.70958023 -0.34526359
vn 4.2536844e-16 0.38268343 -0.92387953
vn 4.0410002e-16 -0.38268343 -0.92387953
vn 0.61423851 0.70958023 -0.34526359
vn 0.61423851 -0.70958023 -0.34526359
vn -0.17261814 -0.37693890 -0.91001101
vn 4.0410002e-16 -0.38268343 -0.92387953
vn -1.3821453e-2 -0.99975069 -1.7536561e-2
vn 0.61423851 -0.70958023 -0.34526359
vn -0.17261814 -0.91001101 -0.37693890
vn 4.0144147e-16 -0.92387953 -0.38268343
vn -1.3821453e-2 -1.7536561e-2 -0.99975069
vn 0.61423851 -0.34526359 -0.70958023
vn 4.0144147e-16 -0.92387953 -0.38268343
vn 4.0675857e-16 -0.92387953 0.38268343
vn 0.61423851 -0.34526359 -0.70958023
vn 0.61423851 -0.34526359 0.70958023
vn -0.17261814 -0.91001101 0.37693890
vn 4.0675857e-16 -0.92387953 0.38268343
vn -1.3821453e-2 -1.7536561e-2 0.99975069
vn 0.61423851 -0.34526359 0.70958023
vn -0.17261814 -0.37693890 0.91001101
vn 4.0410002e-16 -0.38268343 0.92387953
vn 0.61423851 -0.70958023 0.34526359
vn -1.3821453e-2 -0.99975069 1.7536561e-2
vn 4.0410002e-16 -0.38268343 0.92387953
vn 4.2536844e-16 0.38268343 0.92387953
vn 0.61423851 -0.70958023 0.34526359
vn 0.61423851 0.70958023 0.34526359
vn -0.17261814 0.37693890 0.91001101
vn 4.2536844e-16 0.38268343 0.92387953
vn 0.61423851 0.70958023 0.34526359
vn -1.3821453e-2 0.99975069 1.7536561e-2
vn -0.17261814 0.91001101 0.37693890
vn 4.3068555e-16 0.92387953 0.38268343
vn -1.3821453e-2 1.7536561e-2 0.99975069
vn 0.61423851 0.34526359 0.70958023
vn 4.3334410e-16 0.92387953 -0.38268343
vn 4.3068555e-16 0.92387953 0.38268343
vn 0.61423851 0.34526359 0.70958023
vn 0.61423851 0.34526359 -0.70958023
vn -0.17261814 0.91001101 -0.37693890
vn 4.3334410e-16 0.92387953 -0.38268343
vn -1.3821453e-2 1.7536561e-2 -0.99975069
vn 0.61423851 0.34526359 -0.70958023
vn 0.0000000e+0 0.0000000e+0 1.00000000
vn 0.32200089 0.0000000e+0 0.94673937
vn 0.61423851 -0.70958023 0.34526359
vn -1.3821453e-2 -0.99975069 1.7536561e-2
vn 0.0000000e+0 0.0000000e+0 1.00000000
vn 0.32200089 0.0000000e+0 0.94673937
vn 0.61423851 0.70958023 0.34526359
vn -1.3821453e-2 0.99975069 1.7536561e-2
vn 0.32200089 0.0000000e+0 0.94673937
vn 0.61423851 -0.70958023 0.34526359
vn 0.61423851 0.70958023 0.34526359
vn 0.0000000e+0 0.0000000e+0 1.00000000
vn -1.3821453e-2 0.99975069 1.7536561e-2
vn -0.93927939 0.0000000e+0 0.34315335
vn 0.0000000e+0 0.0000000e+0 1.00000000
vn -0.93927939 0.0000000e+0 0.34315335
vn -1.3821453e-2 -0.99975069 1.7536561e-2
vn 0.0000000e+0 1.00000000 0.0000000e+0
vn 0.32200089 0.94673937 0.0000000e+0
vn -1.3821453e-2 1.7536561e-2 0.99975069
vn 0.61423851 0.34526359 0.70958023
vn 0.0000000e+0 1.00000000 0.0000000e+0
vn 0.32200089 0.94673937 0.0000000e+0
vn -1.3821453e-2 1.7536561e-2 -0.99975069
vn 0.61423851 0.34526359 -0.70958023
vn 0.0000000e+0 1.00000000 0.0000000e+0
vn -1.3821453e-2 1.7536561e-2 -0.99975069
vn -0.93927939 0.34315335 0.0000000e+0
vn 0.0000000e+0 1.00000000 0.0000000e+0
vn -0.93927939 0.34315335 0.0000000e+0
vn -1.3821453e-2 1.7536561e-2 0.99975069
vn 0.32200089 0.94673937 0.0000000e+0
vn 0.61423851 0.34526359 0.70958023
vn 0.61423851 0.34526359 -0.70958023
vn 0.0000000e+0 0.0000000e+0 -1.00000000
vn 0.32200089 0.0000000e+0 -0.94673937
vn -1.3821453e-2 0.99975069 -1.7536561e-2
vn 0.61423851 0.70958023 -0.34526359
vn 0.0000000e+0 0.0000000e+0 -1.00000000
vn 0.32200089 0.0000000e+0 -0.94673937
vn -1.3821453e-2 -0.99975069 -1.7536561e-2
vn 0.61423851 -0.70958023 -0.34526359
vn 0.0000000e+0 0.0000000e+0 -1.00000000
vn -1.3821453e-2 -0.99975069 -1.7536561e-2
vn -0.93927939 0.0000000e+0 -0.34315335
vn 0.0000000e+0 0.0000000e+0 -1.00000000
vn -0.93927939 0.0000000e+0 -0.34315335
vn -1.3821453e-2 0.99975069 -1.7536561e-2
vn 0.32200089 0.0000000e+0 -0.94673937
vn 0.61423851 0.70958023 -0.34526359
vn 0.61423851 -0.70958023 -0.34526359
vn 0.32200089 -0.94673937 0.0000000e+0
vn 0.0000000e+0 -1.00000000 0.0000000e+0
vn -1.3821453e-2 -1.7536561e-2 -0.99975069
vn 0.61423851 -0.34526359 -0.70958023
vn 0.32200089 -0.94673937 0.0000000e+0
vn 0.0000000e+0 -1.00000000 0.0000000e+0
vn -1.3821453e-2 -1.7536561e-2 0.99975069
vn 0.61423851 -0.34526359 0.70958023
vn 0.0000000e+0 -1.00000000 0.0000000e+0
vn -1.3821453e-2 -1.7536561e-2 0.99975069
vn -0.93927939 -0.34315335 0.0000000e+0
vn 0.0000000e+0 -1.00000000 0.0000000e+0
vn -0.93927939 -0.34315335 0.0000000e+0
vn -1.3821453e-2 -1.7536561e-2 -0.99975069
vn 0.32200089 -0.94673937 0.0000000e+0
vn 0.61423851 -0.34526359 -0.70958023
vn 0.61423851 -0.34526359 0.70958023
g cylinder1_default
usemtl default
s 1
f 1//1 41//149 42//153 4//10 47//173 48//177 3//7 45//165 46//169 2//4 43//157 44//161
f 5//14 13//46 20//74 12//42
f 5//16 59//222 58//218 40//148 6//20
f 7//21 15//53 14//50 6//18
f 7//23 56//209 55//206 39//144 8//28
f 10//33 18//65 17//62 9//30
f 11//39 50//185 49//182 37//136 12//44
f 17//63 25//89 33//118 24//87 16//60
f 19//71 27//95 31//110 26//93 18//68
f 21//79 36//131 29//103
f 22//82 35//128 36//132
f 23//85 34//124 35//127
f 28//100 29//104 30//107
f 49//183 71//265 74//276 47//176
f 51//192 72//270 75//279 50//188
f 52//195 76//282 79//293 45//168
f 54//204 77//287 80//296 53//200
f 57//215 62//235 63//239 56//212
f 58//219 66//248 69//259 41//152
f 60//228 67//253 70//262 59//224
f 62//233 64//240 65//243 61//229
s 2
f 6//17 14//49 13//45 5//13
f 6//19 40//147 57//214 56//210 7//24
f 8//25 16//57 15//54 7//22
f 10//35 38//139 51//190 50//186 11//40
f 12//41 20//73 19//70 11//38
f 12//43 37//135 60//226 59//221 5//15
f 13//48 21//78 29//102 28//99 20//76
f 15//55 23//83 35//126 22//81 14//52
f 18//67 26//92 32//114 25//90 17//64
f 24//88 33//120 34//123
f 27//97 30//108 31//111
f 37//134 49//181 47//174 4//12
f 38//138 52//193 45//166 3//9
f 40//146 58//217 41//150 1//3
f 42//155 68//255 67//252 60//227
f 43//159 65//244 64//242 44//164
f 46//170 54//201 39//141 2//5
f 48//179 73//272 72//269 51//191
f 53//199 80//295 76//283 52//196
f 56//211 63//238 61//231 55//207
f 59//223 70//261 66//249 58//220
f 71//264 75//277 72//268
f 77//285 78//288 79//291 76//281
s 3
f 4//11 42//154 60//225 37//133
f 8//27 39//143 54//202 53//198 9//32
f 11//37 19//69 18//66 10//34
f 14//51 22//80 36//130 21//77 13//47
f 16//59 24//86 34//122 23//84 15//56
f 20//75 28//98 30//106 27//96 19//72
f 25//91 32//116 33//119
f 26//94 31//112 32//115
f 39//142 55//205 43//158 2//6
f 41//151 69//258 68//256 42//156
f 44//162 57//213 40//145 1//2
f 45//167 79//292 78//290 46//172
f 47//175 74//275 73//273 48//180
f 48//178 51//189 38//137 3//8
f 50//187 75//278 71//266 49//184
f 61//230 63//237 62//234
f 66//247 70//260 67//251
f 76//280 80//294 77//284
s 4
f 9//29 17//61 16//58 8//26
f 9//31 53//197 52//194 38//140 10//36
f 36//129 35//125 34//121 33//117 32//113 31//109 30//105 29//101
f 44//163 64//241 62//236 57//216
f 46//171 78//289 77//286 54//203
f 55//208 61//232 65//245 43//160
f 67//250 68//254 69//257 66//246
f 72//267 73//271 74//274 71//263
