# Exported from Wings 3D 1.4.1
mtllib Rock2.mtl
o cylinder1
#24 vertices, 18 faces
v -0.53461791 -1.33472400 -0.16097981
v 0.41808659 -0.44890543 -0.16097981
v 6.07848610 -0.43582667 -0.16097981
v 5.78559288 1.46172424 -0.16097981
v -0.28902019 1.00000000 -0.16097981
v -4.99225037 2.07229427 -0.16097981
v -3.91995609 1.3004551e-16 -0.16097981
v -3.87266060 -1.30003213 -0.16097981
v -0.53461791 -1.33472400 3.9020189e-2
v 0.41808659 -0.44890543 3.9020189e-2
v 6.07848610 -0.43582667 3.9020189e-2
v 5.78559288 1.46172424 3.9020189e-2
v -0.28902019 1.00000000 3.9020189e-2
v -4.99225037 2.07229427 3.9020189e-2
v -3.91995609 1.1970250e-16 3.9020189e-2
v -3.87266060 -1.30003213 3.9020189e-2
v -0.55568035 -1.21776043 0.13902019
v 0.35605708 -0.37003278 0.13902019
v 5.95452420 -0.36797178 0.13902019
v 5.72477887 1.34722966 0.13902019
v -0.30360528 0.89495267 0.13902019
v -4.75892187 1.83896578 0.13902019
v -3.82083738 2.6042611e-2 0.13902019
v -3.77506147 -1.23221980 0.13902019
vn 2.5791716e-17 3.0289446e-17 -1.00000000
vn -1.0392315e-2 -0.99994600 0.0000000e+0
vn 0.68093159 -0.73234703 0.0000000e+0
vn 2.5791716e-17 3.0289446e-17 -1.00000000
vn 2.3105643e-3 -0.99999733 0.0000000e+0
vn 0.68093159 -0.73234703 0.0000000e+0
vn 2.5791716e-17 3.0289446e-17 -1.00000000
vn 0.98829625 0.15254677 0.0000000e+0
vn 2.3105643e-3 -0.99999733 0.0000000e+0
vn 2.5791716e-17 3.0289446e-17 -1.00000000
vn -7.5790214e-2 0.99712379 0.0000000e+0
vn 0.98829625 0.15254677 0.0000000e+0
vn 2.5791716e-17 3.0289446e-17 -1.00000000
vn 0.22228698 0.97498128 0.0000000e+0
vn -7.5790214e-2 0.99712379 0.0000000e+0
vn 2.5791716e-17 3.0289446e-17 -1.00000000
vn -0.88814454 -0.45956422 0.0000000e+0
vn 0.22228698 0.97498128 0.0000000e+0
vn 2.5791716e-17 3.0289446e-17 -1.00000000
vn -0.99933889 -3.6356200e-2 0.0000000e+0
vn -0.88814454 -0.45956422 0.0000000e+0
vn 2.5791716e-17 3.0289446e-17 -1.00000000
vn -1.0392315e-2 -0.99994600 0.0000000e+0
vn -0.99933889 -3.6356200e-2 0.0000000e+0
vn -1.0392315e-2 -0.99994600 0.0000000e+0
vn 0.68093159 -0.73234703 0.0000000e+0
vn -2.2649418e-3 -0.73407550 0.67906408
vn 0.48149135 -0.51784755 0.70710678
vn 2.3105643e-3 -0.99999733 0.0000000e+0
vn 0.68093159 -0.73234703 0.0000000e+0
vn 0.48149135 -0.51784755 0.70710678
vn 1.0835648e-3 -0.80580661 0.59217778
vn 0.98829625 0.15254677 0.0000000e+0
vn 2.3105643e-3 -0.99999733 0.0000000e+0
vn 1.0835648e-3 -0.80580661 0.59217778
vn 0.71833691 0.10391816 0.68789032
vn -7.5790214e-2 0.99712379 0.0000000e+0
vn 0.98829625 0.15254677 0.0000000e+0
vn 0.71833691 0.10391816 0.68789032
vn -5.1515518e-2 0.68215682 0.72938894
vn 0.22228698 0.97498128 0.0000000e+0
vn -7.5790214e-2 0.99712379 0.0000000e+0
vn -5.1515518e-2 0.68215682 0.72938894
vn 0.12396245 0.56306685 0.81706122
vn -0.88814454 -0.45956422 0.0000000e+0
vn 0.22228698 0.97498128 0.0000000e+0
vn 0.12396245 0.56306685 0.81706122
vn -0.62801303 -0.32496098 0.70710678
vn -0.99933889 -3.6356200e-2 0.0000000e+0
vn -0.88814454 -0.45956422 0.0000000e+0
vn -0.62801303 -0.32496098 0.70710678
vn -0.70663931 -2.5707716e-2 0.70710678
vn -1.0392315e-2 -0.99994600 0.0000000e+0
vn -0.99933889 -3.6356200e-2 0.0000000e+0
vn -2.2649418e-3 -0.73407550 0.67906408
vn -0.70663931 -2.5707716e-2 0.70710678
vn -2.7244099e-17 -3.3551887e-17 1.00000000
vn -2.2649418e-3 -0.73407550 0.67906408
vn 0.48149135 -0.51784755 0.70710678
vn -2.7244099e-17 -3.3551887e-17 1.00000000
vn 0.48149135 -0.51784755 0.70710678
vn 1.0835648e-3 -0.80580661 0.59217778
vn -2.7244099e-17 -3.3551887e-17 1.00000000
vn 1.0835648e-3 -0.80580661 0.59217778
vn 0.71833691 0.10391816 0.68789032
vn -2.7244099e-17 -3.3551887e-17 1.00000000
vn 0.71833691 0.10391816 0.68789032
vn -5.1515518e-2 0.68215682 0.72938894
vn -2.7244099e-17 -3.3551887e-17 1.00000000
vn -5.1515518e-2 0.68215682 0.72938894
vn 0.12396245 0.56306685 0.81706122
vn -2.7244099e-17 -3.3551887e-17 1.00000000
vn 0.12396245 0.56306685 0.81706122
vn -0.62801303 -0.32496098 0.70710678
vn -2.7244099e-17 -3.3551887e-17 1.00000000
vn -0.62801303 -0.32496098 0.70710678
vn -0.70663931 -2.5707716e-2 0.70710678
vn -2.7244099e-17 -3.3551887e-17 1.00000000
vn -2.2649418e-3 -0.73407550 0.67906408
vn -0.70663931 -2.5707716e-2 0.70710678
g cylinder1_default
usemtl default
s 1
f 1//1 8//22 7//19 6//16 5//13 4//10 3//7 2//4
f 10//32 11//35 19//64 18//62
f 12//40 13//43 21//70 20//68
f 15//52 16//56 24//80 23//77
s 2
f 2//6 10//30 9//26 1//3
f 5//15 13//42 12//37 4//11
f 8//24 16//54 15//49 7//20
f 9//27 17//58 24//79 16//55
f 11//36 12//39 20//67 19//65
f 14//48 15//51 23//76 22//74
s 3
f 1//2 9//25 16//53 8//23
f 4//12 12//38 11//33 3//8
f 6//18 14//46 13//41 5//14
f 18//61 17//59 9//28 10//31
s 4
f 3//9 11//34 10//29 2//5
f 7//21 15//50 14//45 6//17
f 13//44 14//47 22//73 21//71
s 5
f 18//60 19//63 20//66 21//69 22//72 23//75 24//78 17//57
